<?xml version="1.0" encoding="utf-8"?>
<!-- Generator: Adobe Illustrator 27.0.0, SVG Export Plug-In . SVG Version: 6.00 Build 0)  -->
<svg version="1.1" id="Layer_1" xmlns="http://www.w3.org/2000/svg" xmlns:xlink="http://www.w3.org/1999/xlink" x="0px" y="0px"
	 viewBox="0 0 52 52" style="enable-background:new 0 0 52 52;" xml:space="preserve">
<style type="text/css">
	.st0{fill:#1C2033;}
</style>
<path class="st0" d="M50.4,13.8c0,0,0-0.1-0.1-0.1c0-0.1,0-0.1-0.1-0.1c0-0.1-0.1-0.1-0.1-0.1c0,0-0.1-0.1-0.1-0.1
	c0,0-0.1,0-0.1-0.1c0,0-0.1-0.1-0.1-0.1l-9.4-5.4c-0.3-0.2-0.8-0.2-1.1,0l-9.4,5.4c0,0-0.1,0-0.1,0.1l-0.1,0.1c0,0-0.1,0.1-0.1,0.1
	l-0.1,0.1c0,0-0.1,0.1-0.1,0.2l0,0.1c0,0.1,0,0.2,0,0.3v10.1l-7.2,4.1V8.8c0-0.1,0-0.2,0-0.3c0,0,0-0.1-0.1-0.1c0-0.1,0-0.1-0.1-0.1
	c0-0.1-0.1-0.1-0.1-0.1c0,0-0.1-0.1-0.1-0.1C22.1,8,22,8,22,8c0,0-0.1-0.1-0.1-0.1l-9.4-5.4c-0.3-0.2-0.7-0.2-1.1,0L2.1,7.9
	c0,0-0.1,0.1-0.1,0.1L1.8,8.1c0,0-0.1,0.1-0.1,0.1L1.7,8.3c0,0-0.1,0.1-0.1,0.2l0,0.1c0,0.1,0,0.2,0,0.3v32.1c0,0.2,0.1,0.4,0.2,0.5
	c0.1,0.2,0.2,0.3,0.4,0.4l18.7,10.8c0,0,0.1,0,0.2,0.1l0.1,0c0.1,0,0.2,0,0.3,0c0.1,0,0.2,0,0.3,0l0.1,0c0.1,0,0.1,0,0.2-0.1
	l18.7-10.8c0.3-0.2,0.5-0.6,0.5-0.9V30.8l8.8-5.1c0.2-0.1,0.3-0.2,0.4-0.4c0.1-0.2,0.1-0.4,0.1-0.5V14.1
	C50.5,14,50.5,13.9,50.4,13.8z M40,18.3l-7.2-4.1L40,10l7.2,4.1L40,18.3z M12,4.7l7.2,4.1L12,13L4.8,8.8L12,4.7z M20.2,10.7v18.9
	l-4.4,2.5L13,33.7V14.8L20.2,10.7z M20.2,49.8L3.7,40.2V10.7l7.2,4.2v20.7c0,0,0,0.1,0,0.1c0,0,0,0.1,0,0.1c0,0,0,0.1,0.1,0.1
	c0,0.1,0,0.1,0.1,0.1c0,0,0,0.1,0.1,0.1l0.1,0.1c0,0,0.1,0.1,0.1,0.1l8.9,5.1V49.8z M21.3,39.6l-7.2-4.1l16.5-9.5l7.2,4.1L21.3,39.6
	z M39,40.2l-16.5,9.5v-8.3L39,32.1V40.2z M39,28.3l-7.2-4.1V16l7.2,4.1V28.3z M48.3,24.2l-7.2,4.1v-8.2l7.2-4.1V24.2z"/>
</svg>
