<svg xmlns="http://www.w3.org/2000/svg" viewBox="0 0 48 48">
  <path d="M13.671875 5.0097656C12.773072 5.0097656 11.87432 5.3483358 11.197266 6.0253906L6.0253906 11.197266C4.671281 12.551375 4.671281 14.792375 6.0253906 16.146484L13.990234 24.111328L8.9160156 29.183594C8.4960384 29.603571 8.1884588 30.12585 8.0253906 30.699219L5.0585938 41.087891 A 1.50015 1.50015 0 0 0 6.9121094 42.941406L17.302734 39.974609 A 1.50015 1.50015 0 0 0 17.304688 39.972656C17.874212 39.808939 18.39521 39.50518 18.816406 39.083984L40.949219 16.949219C43.670344 14.228094 43.670344 9.7719064 40.949219 7.0507812C39.589209 5.6901377 37.794699 5.0097656 36 5.0097656C34.205301 5.0097656 32.410791 5.6901377 31.050781 7.0507812L24.111328 13.990234L22.226562 12.105469 A 1.50015 1.50015 0 0 0 21.892578 11.771484L18.226562 8.1054688 A 1.50015 1.50015 0 0 0 17.892578 7.7714844L16.146484 6.0253906C15.46943 5.3483358 14.570678 5.0097656 13.671875 5.0097656 z M 13.671875 7.9902344C13.79666 7.9902344 13.921445 8.0425392 14.025391 8.1464844L14.878906 9L14.439453 9.4394531 A 1.50015 1.50015 0 1 0 16.560547 11.560547L17 11.121094L18.878906 13L18.439453 13.439453 A 1.50015 1.50015 0 1 0 20.560547 15.560547L21 15.121094L21.990234 16.111328L16.111328 21.990234L8.1464844 14.025391C7.938594 13.8175 7.938594 13.52625 8.1464844 13.318359L13.318359 8.1464844C13.422305 8.0425392 13.54709 7.9902344 13.671875 7.9902344 z M 36 7.9921875C37.020801 7.9921875 38.040182 8.3855186 38.826172 9.171875 A 1.50015 1.50015 0 0 0 38.828125 9.171875C40.403 10.74675 40.403 13.25325 38.828125 14.828125L36.888672 16.767578L31.232422 11.111328L33.171875 9.171875C33.957865 8.3855186 34.979199 7.9921875 36 7.9921875 z M 29.111328 13.232422L34.767578 18.888672L16.693359 36.962891C16.634729 37.021121 16.560472 37.065723 16.476562 37.089844L8.6835938 39.316406L10.910156 31.521484 A 1.50015 1.50015 0 0 0 10.910156 31.519531C10.933086 31.438901 10.975086 31.366709 11.037109 31.304688L29.111328 13.232422 z M 36.060547 25.939453L33.939453 28.060547L36.878906 31L36.439453 31.439453 A 1.50015 1.50015 0 1 0 38.560547 33.560547L39 33.121094L40.025391 34.146484C40.233281 34.354375 40.233281 34.645625 40.025391 34.853516L34.853516 40.025391C34.645625 40.233281 34.354375 40.233281 34.146484 40.025391L28.060547 33.939453L25.939453 36.060547L32.025391 42.146484C33.3795 43.500594 35.6205 43.500594 36.974609 42.146484L42.146484 36.974609C43.500594 35.6205 43.500594 33.3795 42.146484 32.025391L40.226562 30.105469 A 1.50015 1.50015 0 0 0 39.892578 29.771484L36.060547 25.939453 z" fill="#FFFFFF" />
</svg>