<svg xmlns="http://www.w3.org/2000/svg" viewBox="0 0 48 48">
  <path d="M10.5 6C7.467 6 5 8.468 5 11.5L5 13.5L5 36.5C5 39.532 7.467 42 10.5 42L24.056641 42C23.462641 41.073 22.979766 40.068 22.634766 39L10.5 39C9.122 39 8 37.879 8 36.5L8 15L40 15L40 23C41.084 23.452 42.088 24.053578 43 24.767578L43 13.5L43 11.5C43 11.3105 42.98952 11.124082 42.970703 10.939453C42.895466 10.200938 42.674995 9.50425 42.335938 8.8808594C41.657945 7.6346085 40.510765 6.6775943 39.134766 6.2480469C39.134168 6.2478607 39.13341 6.2482329 39.132812 6.2480469C38.789218 6.140914 38.431076 6.0669919 38.0625 6.0292969C38.06186 6.0292317 38.061186 6.0293618 38.060547 6.0292969C37.875918 6.0104805 37.6895 6 37.5 6L10.5 6 z M 10.5 9C11.328 9 12 9.672 12 10.5C12 11.328 11.328 12 10.5 12C9.672 12 9 11.328 9 10.5C9 9.7755 9.5139453 9.1711953 10.197266 9.03125C10.294883 9.0112578 10.3965 9 10.5 9 z M 15.5 9C16.328 9 17 9.672 17 10.5C17 11.328 16.328 12 15.5 12C14.672 12 14 11.328 14 10.5C14 9.672 14.672 9 15.5 9 z M 21.5 9L37.5 9C37.6035 9 37.705117 9.0112578 37.802734 9.03125C38.486055 9.1711953 39 9.7755 39 10.5C39 11.328 38.328 12 37.5 12L21.5 12C20.672 12 20 11.328 20 10.5C20 9.672 20.672 9 21.5 9 z M 35 24C32.18475 24 29.368703 25.074656 27.220703 27.222656C22.924703 31.518656 22.924703 38.483297 27.220703 42.779297C31.516703 47.075297 38.482344 47.075297 42.777344 42.779297C47.074344 38.482297 47.073344 31.518656 42.777344 27.222656C40.629344 25.074656 37.81525 24 35 24 z M 35 27C39.411 27 43 30.589 43 35C43 39.411 39.411 43 35 43C30.589 43 27 39.411 27 35C27 30.589 30.589 27 35 27 z M 34.976562 29.001953C34.626562 29.126953 33.704156 30.826 33.535156 34L36.464844 34C36.295844 30.824 35.369328 29.124953 34.986328 29.001953C34.983328 29.001953 34.980563 29.001953 34.976562 29.001953 z M 32.3125 29.660156C30.6425 30.505156 29.411844 32.091 29.089844 34L31.527344 34C31.603344 32.441 31.8605 30.900156 32.3125 29.660156 z M 37.6875 29.660156C38.1395 30.900156 38.396656 32.441 38.472656 34L40.910156 34C40.589156 32.09 39.3585 30.504156 37.6875 29.660156 z M 29.089844 36C29.410844 37.91 30.6415 39.495844 32.3125 40.339844C31.8605 39.099844 31.603344 37.559 31.527344 36L29.089844 36 z M 33.535156 36C33.705156 39.176 34.631672 40.875047 35.013672 40.998047C35.016672 40.998047 35.019437 40.998047 35.023438 40.998047C35.373438 40.873047 36.295844 39.174 36.464844 36L33.535156 36 z M 38.472656 36C38.395656 37.559 38.1385 39.099844 37.6875 40.339844C39.3575 39.494844 40.588156 37.909 40.910156 36L38.472656 36 z" fill="#FFFFFF" />
</svg>