<svg version="1.1" xmlns="http://www.w3.org/2000/svg" xmlns:xlink="http://www.w3.org/1999/xlink" viewBox="0 0 50.854 48.132">
		<path class="st3" d="M37.049,4.501H16.42c-0.741,0-1.453,0.295-1.978,0.82L13.61,6.152l-0.988,0.988V1.562 c0-0.856-0.694-1.55-1.55-1.55H8.2c-0.856,0-1.55,0.694-1.55,1.55v2.939h-5.1C0.694,4.501,0,5.195,0,6.052v2.871 c0,0.856,0.694,1.55,1.55,1.55h5.1v36.383c0,0.705,0.571,1.276,1.276,1.276h3.42c0.705,0,1.276-0.571,1.276-1.276V21.563 c5.273,5.273,10.546,10.546,15.819,15.819c0.253,0.253,0.663,0.253,0.916,0c1.102-1.102,2.204-2.204,3.306-3.307 c0.253-0.253,0.253-0.663,0-0.916c-0.582-0.582-1.163-1.163-1.745-1.745l1.708-1.708l5.093-5.094 c0.563-0.563,0.879-1.327,0.879-2.123V6.052C38.599,5.195,37.905,4.501,37.049,4.501z M32.627,20.235 c0,0.656-0.261,1.286-0.725,1.75l-3.512,3.512c-0.936,0.936-2.453,0.936-3.389,0L13.857,14.353l3.256-3.256 c0.399-0.4,0.94-0.624,1.504-0.624h11.555c1.355,0,2.454,1.099,2.454,2.454V20.235z"/>
		<path class="st3" d="M50.854,1.475v26.312c0,0.537-0.213,1.052-0.593,1.431l-5.379,5.379l-7.562,7.562l-5.379,5.379 c-0.38,0.38-0.894,0.593-1.431,0.593h-12.44c-0.814,0-1.475-0.66-1.475-1.475v-3.023c0-0.814,0.66-1.475,1.475-1.475h9.966 c0.532,0,1.042-0.211,1.418-0.587l14.841-14.841c0.376-0.376,0.587-0.886,0.587-1.418V1.475C44.882,0.66,45.542,0,46.357,0h3.023 C50.194,0,50.854,0.66,50.854,1.475z"/>
		<path class="st3" d="M41.355,47.188l8.555-8.555c0.348-0.348,0.944-0.102,0.944,0.391v7.689c0,0.784-0.635,1.419-1.419,1.419 h-7.689C41.254,48.132,41.007,47.536,41.355,47.188z"/>
</svg>
