<?xml version="1.0" encoding="utf-8"?>
<!-- Generator: Adobe Illustrator 27.0.0, SVG Export Plug-In . SVG Version: 6.00 Build 0)  -->
<svg version="1.1" id="Layer_1" xmlns="http://www.w3.org/2000/svg" xmlns:xlink="http://www.w3.org/1999/xlink" x="0px" y="0px"
	 viewBox="0 0 1181 719.9" style="enable-background:new 0 0 1181 719.9;" xml:space="preserve">
<style type="text/css">
	.st0{display:none;}
	.st1{display:inline;fill:none;stroke:#000000;stroke-miterlimit:10;}
	.st2{fill-opacity:0;}
	.st3{opacity:0.12;fill:#8171FF;enable-background:new    ;}
	.st4{fill:url(#SVGID_1_);}
	.st5{fill:#FFFFFF;}
	.st6{opacity:0.69;}
	.st7{opacity:0.33;enable-background:new    ;}
	.st8{fill:none;}
	.st9{opacity:0.1;fill:#FFFFFF;enable-background:new    ;}
	.st10{opacity:0.85;}
	.st11{opacity:0.5;}
	.st12{clip-path:url(#SVGID_00000114069830008414272970000014123587330028873404_);}
	.st13{fill-rule:evenodd;clip-rule:evenodd;fill:#FFFFFF;}
	.st14{opacity:0.6;}
	.st15{fill:#00CFFD;}
	.st16{fill:#0E121E;}
	.st17{opacity:0.5;fill:#FFFFFF;enable-background:new    ;}
	.st18{opacity:0.21;fill:none;stroke:#FFFFFF;stroke-miterlimit:10;enable-background:new    ;}
	.st19{opacity:0.21;fill:#999999;stroke:#FFFFFF;stroke-width:2;stroke-miterlimit:10;enable-background:new    ;}
</style>
<g id="Layer_3">
</g>
<g id="Layer_2_00000071520951305758854380000016421355874121481654_">
	<g class="st0">
		<circle class="st1" cx="1469.6" cy="722.2" r="324"/>
		<circle class="st1" cx="1469.6" cy="722.2" r="396"/>
		<line class="st1" x1="1001.6" y1="326.2" x2="2153.6" y2="326.2"/>
		<line class="st1" x1="1001.6" y1="1190.2" x2="1937.6" y2="254.2"/>
		<line class="st1" x1="1001.6" y1="1118.2" x2="1937.6" y2="182.2"/>
		<line class="st1" x1="1001.6" y1="1046.2" x2="1937.6" y2="110.2"/>
		<line class="st1" x1="1001.6" y1="974.2" x2="1937.6" y2="38.2"/>
		<line class="st1" x1="1001.6" y1="902.2" x2="1937.6" y2="-33.8"/>
		<line class="st1" x1="1001.6" y1="830.2" x2="1937.6" y2="-105.8"/>
		<line class="st1" x1="1001.6" y1="758.2" x2="1937.6" y2="-177.8"/>
		<line class="st1" x1="1001.6" y1="686.2" x2="1937.6" y2="-249.8"/>
		<line class="st1" x1="1001.6" y1="614.2" x2="1937.6" y2="-321.8"/>
		<line class="st1" x1="1001.6" y1="542.2" x2="1937.6" y2="-393.8"/>
		<line class="st1" x1="1001.6" y1="470.2" x2="1937.6" y2="-465.8"/>
		<line class="st1" x1="1001.6" y1="398.2" x2="1937.6" y2="-537.8"/>
		<line class="st1" x1="2081.6" y1="1190.2" x2="1145.6" y2="254.2"/>
		<line class="st1" x1="2009.6" y1="1190.2" x2="1073.6" y2="254.2"/>
		<line class="st1" x1="1937.6" y1="1190.2" x2="1001.6" y2="254.2"/>
		<line class="st1" x1="1865.6" y1="1190.2" x2="929.6" y2="254.2"/>
		<line class="st1" x1="1793.6" y1="1190.2" x2="857.6" y2="254.2"/>
		<line class="st1" x1="1721.6" y1="1190.2" x2="785.6" y2="254.2"/>
		<line class="st1" x1="1649.6" y1="1190.2" x2="713.6" y2="254.2"/>
		<line class="st1" x1="1577.6" y1="1190.2" x2="641.6" y2="254.2"/>
		<line class="st1" x1="1505.6" y1="1190.2" x2="569.6" y2="254.2"/>
		<line class="st1" x1="1433.6" y1="1190.2" x2="497.6" y2="254.2"/>
		<line class="st1" x1="1361.6" y1="1190.2" x2="425.6" y2="254.2"/>
		<line class="st1" x1="1289.6" y1="1190.2" x2="353.6" y2="254.2"/>
		<line class="st1" x1="1217.6" y1="1190.2" x2="281.6" y2="254.2"/>
		<line class="st1" x1="1145.6" y1="1190.2" x2="209.6" y2="254.2"/>
		<line class="st1" x1="1073.6" y1="1190.2" x2="137.6" y2="254.2"/>
		<line class="st1" x1="1073.6" y1="1190.2" x2="2009.6" y2="254.2"/>
		<line class="st1" x1="1145.6" y1="1190.2" x2="2081.6" y2="254.2"/>
		<line class="st1" x1="1001.6" y1="398.2" x2="2153.6" y2="398.2"/>
		<line class="st1" x1="1001.6" y1="470.2" x2="2153.6" y2="470.2"/>
		<line class="st1" x1="1001.6" y1="542.2" x2="2153.6" y2="542.2"/>
		<line class="st1" x1="1001.6" y1="614.2" x2="2153.6" y2="614.2"/>
		<line class="st1" x1="1001.6" y1="686.2" x2="2153.6" y2="686.2"/>
		<line class="st1" x1="1073.6" y1="254.2" x2="1073.6" y2="1190.2"/>
		<line class="st1" x1="1145.6" y1="254.2" x2="1145.6" y2="1190.2"/>
	</g>
</g>
<g id="uis">
	<g>
		<rect class="st2" width="1181" height="719.9"/>
		<rect x="232.4" class="st3" width="948.5" height="719.9"/>
		
			<radialGradient id="SVGID_1_" cx="41.1522" cy="684.4542" r="36.3524" fx="13.3502" fy="661.0332" gradientTransform="matrix(1 0 0 -1 0 722)" gradientUnits="userSpaceOnUse">
			<stop  offset="0" style="stop-color:#FFFFFF"/>
			<stop  offset="5.250000e-02" style="stop-color:#FBF8FC"/>
			<stop  offset="0.1307" style="stop-color:#F0E3F3"/>
			<stop  offset="0.2248" style="stop-color:#DFC2E4"/>
			<stop  offset="0.3314" style="stop-color:#C794D0"/>
			<stop  offset="0.4469" style="stop-color:#A85AB7"/>
			<stop  offset="0.5122" style="stop-color:#9536A7"/>
			<stop  offset="1" style="stop-color:#0047D6"/>
		</radialGradient>
		<path class="st4" d="M51.6,30.1H39.4c-0.4,0-0.9,0.2-1.2,0.5l-0.5,0.5l-0.6,0.6v-0.9c0-0.4-0.3-0.7-0.7-0.7h-2.1
			c-0.4,0-0.7,0.3-0.7,0.7v24.4c0,0.4,0.2,0.7,0.6,0.7c0.1,0,0.1,0,0.2,0h2c0.1,0,0.1,0,0.2,0c0.3-0.1,0.6-0.4,0.6-0.7v-15
			c3.1,3.1,6.2,6.2,9.4,9.4c0.2,0.2,0.4,0.1,0.5,0c0.7-0.7,1.3-1.3,2-2c0.1-0.2,0.1-0.4,0-0.5c-0.3-0.3-0.7-0.7-1-1l1-1l3-3
			c0.3-0.3,0.5-0.8,0.5-1.3V31C52.6,30.5,52.1,30.1,51.6,30.1z M49,39.4c0,0.4-0.2,0.8-0.4,1l-2.1,2.1c-0.6,0.6-1.5,0.6-2,0
			l-6.6-6.6l1.9-1.9c0.2-0.2,0.6-0.4,0.9-0.4h6.8c0.8,0,1.5,0.7,1.5,1.5L49,39.4L49,39.4z M59.8,30c0.4,0,0.7,0.3,0.7,0.7v13.1
			c0,0.3-0.1,0.6-0.4,0.8l-7.7,7.7l-3.2,3.2c-0.2,0.2-0.4,0.3-0.6,0.3c-0.1,0-0.2,0-0.2,0h-7.4c-0.1,0-0.1,0-0.2,0
			c-0.4-0.1-0.7-0.4-0.7-0.8v-1.8c0-0.5,0.4-0.9,0.9-0.9H47c0.3,0,0.6-0.1,0.8-0.3l8.8-8.8c0.2-0.2,0.3-0.5,0.3-0.8V30.7
			c0-0.4,0.3-0.7,0.7-0.7L59.8,30L59.8,30z M54.9,55.3l5.1-5.1c0.2-0.2,0.6-0.1,0.6,0.2v4.5c0,0.5-0.4,0.8-0.8,0.8h-4.5
			C54.8,55.9,54.7,55.5,54.9,55.3z"/>
		<g>
			<path class="st5" d="M83.9,39c1.1,0,2,0.1,2.6,0.3c0.6,0.2,1.1,0.6,1.3,1.1s0.4,1.3,0.4,2.2s-0.1,1.7-0.4,2.2
				c-0.2,0.5-0.7,0.9-1.2,1.1c-0.6,0.2-1.3,0.3-2.3,0.3c-0.5,0-1,0-1.5-0.1c-0.5,0-1-0.1-1.4-0.2c-0.4-0.1-0.8-0.2-1.1-0.3
				c-0.3-0.1-0.5-0.2-0.6-0.2l0-1.4c0.7,0,1.3,0,2.1,0c0.7,0,1.4,0,2.1,0c0.4,0,0.7-0.1,0.9-0.1c0.2-0.1,0.3-0.2,0.4-0.4
				s0.1-0.5,0.1-0.9c0-0.4,0-0.7-0.1-0.9s-0.2-0.4-0.4-0.5c-0.2-0.1-0.5-0.1-0.9-0.1c-1,0-1.9,0-2.7,0c-0.7,0-1.2,0-1.5,0.1
				l-0.2-2.1c0.5-0.1,0.9-0.1,1.3-0.1s0.9,0,1.4,0C82.7,39,83.2,39,83.9,39z M82.5,39.1v11h-3v-11H82.5z"/>
			<path class="st5" d="M93.6,39.1c0.6,0,1.2,0,1.9,0s1.3,0,1.9,0s1.2,0.1,1.7,0.1L99,41.4h-4.1c-0.2,0-0.4,0.1-0.5,0.2
				c-0.1,0.1-0.2,0.3-0.2,0.5v5.1c0,0.2,0.1,0.4,0.2,0.5c0.1,0.1,0.3,0.2,0.5,0.2H99l0.1,2.1c-0.5,0.1-1.1,0.1-1.7,0.1s-1.3,0-1.9,0
				c-0.6,0-1.3,0-1.9,0c-0.7,0-1.3-0.2-1.8-0.7c-0.5-0.4-0.7-1-0.7-1.7v-6.4c0-0.7,0.2-1.3,0.7-1.7C92.3,39.3,92.9,39.1,93.6,39.1z
				 M91.4,43.5h7v2h-7V43.5z"/>
			<path class="st5" d="M106.7,39c1.1,0,2,0.1,2.6,0.3c0.6,0.2,1.1,0.6,1.3,1.1s0.4,1.3,0.4,2.2s-0.1,1.7-0.4,2.2
				c-0.2,0.5-0.7,0.9-1.2,1.1c-0.6,0.2-1.3,0.3-2.3,0.3c-0.5,0-1,0-1.5-0.1c-0.5,0-1-0.1-1.4-0.2c-0.4-0.1-0.8-0.2-1.1-0.3
				c-0.3-0.1-0.5-0.2-0.6-0.2l0-1.4c0.7,0,1.3,0,2.1,0c0.7,0,1.4,0,2.1,0c0.4,0,0.7-0.1,0.9-0.1c0.2-0.1,0.3-0.2,0.4-0.4
				s0.1-0.5,0.1-0.9c0-0.4,0-0.7-0.1-0.9s-0.2-0.4-0.4-0.5c-0.2-0.1-0.5-0.1-0.9-0.1c-1,0-1.9,0-2.7,0c-0.7,0-1.2,0-1.5,0.1
				l-0.2-2.1c0.5-0.1,0.9-0.1,1.3-0.1s0.9,0,1.4,0C105.4,39,106,39,106.7,39z M105.2,39.1v11h-3v-11H105.2z"/>
			<path class="st5" d="M118.4,39c1.1,0,2,0.1,2.6,0.3c0.6,0.2,1.1,0.6,1.3,1.1s0.4,1.3,0.4,2.2s-0.1,1.7-0.4,2.2
				c-0.2,0.5-0.7,0.9-1.2,1.1c-0.6,0.2-1.3,0.3-2.3,0.3c-0.5,0-1,0-1.5-0.1c-0.5,0-1-0.1-1.4-0.2c-0.4-0.1-0.8-0.2-1.1-0.3
				c-0.3-0.1-0.5-0.2-0.6-0.2l0-1.4c0.7,0,1.3,0,2.1,0c0.7,0,1.4,0,2.1,0c0.4,0,0.7-0.1,0.9-0.1c0.2-0.1,0.3-0.2,0.4-0.4
				s0.1-0.5,0.1-0.9c0-0.4,0-0.7-0.1-0.9s-0.2-0.4-0.4-0.5c-0.2-0.1-0.5-0.1-0.9-0.1c-1,0-1.9,0-2.7,0c-0.7,0-1.2,0-1.5,0.1
				l-0.2-2.1c0.5-0.1,0.9-0.1,1.3-0.1s0.9,0,1.4,0C117.1,39,117.7,39,118.4,39z M116.9,39.1v11h-3v-11H116.9z"/>
			<path class="st5" d="M128.6,39.1v8c0,0.2,0.1,0.4,0.2,0.5c0.1,0.1,0.3,0.2,0.6,0.2h3.8l0.1,2.3c-0.8,0.1-1.6,0.2-2.5,0.2
				c-0.9,0-1.8,0-2.6,0c-0.8,0-1.4-0.2-1.9-0.7c-0.4-0.4-0.7-1-0.7-1.7v-8.7C125.6,39.1,128.6,39.1,128.6,39.1z"/>
			<path class="st5" d="M140.5,38.9c0.9,0,1.7,0.1,2.3,0.3c0.6,0.2,1.1,0.5,1.5,0.9c0.4,0.4,0.7,1,0.8,1.8c0.2,0.7,0.3,1.7,0.3,2.8
				c0,1.1-0.1,2-0.3,2.8c-0.2,0.7-0.5,1.3-0.8,1.8c-0.4,0.4-0.9,0.7-1.5,0.9c-0.6,0.2-1.4,0.3-2.3,0.3c-0.9,0-1.7-0.1-2.3-0.3
				c-0.6-0.2-1.1-0.5-1.5-0.9c-0.4-0.4-0.7-1-0.8-1.8c-0.2-0.7-0.3-1.7-0.3-2.8c0-1.1,0.1-2.1,0.3-2.8c0.2-0.7,0.5-1.3,0.8-1.8
				c0.4-0.4,0.9-0.7,1.5-0.9C138.8,39,139.6,38.9,140.5,38.9z M140.5,41.2c-0.5,0-0.8,0.1-1.1,0.3c-0.3,0.2-0.4,0.5-0.6,1
				c-0.1,0.5-0.2,1.2-0.2,2.1c0,0.9,0.1,1.6,0.2,2.1c0.1,0.5,0.3,0.8,0.6,1c0.3,0.2,0.6,0.3,1.1,0.3c0.5,0,0.8-0.1,1.1-0.3
				c0.3-0.2,0.4-0.5,0.5-1c0.1-0.5,0.2-1.2,0.2-2.1c0-0.9-0.1-1.6-0.2-2.1c-0.1-0.5-0.3-0.8-0.5-1C141.3,41.3,141,41.2,140.5,41.2z"
				/>
			<path class="st5" d="M152.6,39c0.9,0,1.6,0.1,2.1,0.2s0.9,0.5,1.1,0.9s0.4,1,0.4,1.8c0,0.8-0.1,1.4-0.4,1.8s-0.8,0.7-1.4,0.7v0.1
				c0.8,0.1,1.4,0.4,1.7,0.9c0.3,0.5,0.5,1.2,0.5,2.1c0,0.8-0.1,1.3-0.3,1.8c-0.2,0.4-0.6,0.7-1.1,0.9s-1.2,0.2-2,0.2
				c-0.6,0-1.1,0-1.6,0c-0.4,0-0.8,0-1.2,0c-0.4,0-0.7,0-1.2-0.1l0.2-0.8c0.2,0,0.7,0,1.3,0s1.4,0,2.2,0c0.6,0,1.1-0.1,1.5-0.2
				s0.6-0.3,0.8-0.6s0.2-0.7,0.2-1.3c0-0.6-0.1-1.1-0.2-1.5c-0.2-0.3-0.4-0.6-0.8-0.7c-0.4-0.1-0.9-0.2-1.6-0.2h-3.4V44h3.4
				c0.6,0,1.1-0.1,1.4-0.2s0.6-0.3,0.8-0.6c0.2-0.3,0.2-0.7,0.2-1.3c0-0.6-0.1-1-0.2-1.3c-0.2-0.3-0.4-0.5-0.8-0.6
				c-0.4-0.1-0.9-0.2-1.6-0.2c-0.5,0-1,0-1.4,0s-0.8,0-1.1,0c-0.3,0-0.5,0-0.7,0l-0.2-0.8c0.4,0,0.7-0.1,1-0.1c0.3,0,0.7,0,1,0
				C151.6,39,152.1,39,152.6,39z M150.2,39.1v11h-1v-11H150.2z"/>
			<path class="st5" d="M164.5,39c0.8,0,1.4,0.1,2,0.3c0.5,0.2,1,0.5,1.3,1c0.3,0.4,0.6,1,0.7,1.7c0.1,0.7,0.2,1.6,0.2,2.7
				c0,1.1-0.1,1.9-0.2,2.7s-0.4,1.3-0.7,1.7c-0.3,0.4-0.8,0.8-1.3,1s-1.2,0.3-2,0.3c-0.7,0-1.4,0-2.1,0c-0.6,0-1.2-0.1-1.8-0.1
				l0.5-0.8c0.5,0,1,0,1.5,0s1.2,0,1.8,0c0.8,0,1.4-0.1,1.8-0.4c0.5-0.3,0.8-0.8,1-1.5c0.2-0.7,0.3-1.6,0.3-2.8
				c0-1.2-0.1-2.1-0.3-2.8c-0.2-0.7-0.5-1.2-1-1.5c-0.5-0.3-1.1-0.4-1.8-0.4c-0.7,0-1.3,0-1.8,0s-1.1,0-1.6,0l-0.4-0.8
				c0.6,0,1.1-0.1,1.8-0.1C163.1,39,163.7,39,164.5,39z M161.7,39.1v11h-1v-11H161.7z"/>
		</g>
		<g class="st6">
			<path class="st7" d="M287.1,61.5h-24.5c-3.7,0-6.7-3-6.7-6.7V30.2c0-3.7,3-6.7,6.7-6.7h24.5c3.7,0,6.7,3,6.7,6.7v24.5
				C293.8,58.5,290.8,61.5,287.1,61.5z"/>
			<g>
				<rect x="265.4" y="33.6" class="st5" width="18.9" height="2.3"/>
				<rect x="265.4" y="41.3" class="st5" width="18.9" height="2.3"/>
				<rect x="265.4" y="49" class="st5" width="18.9" height="2.3"/>
			</g>
		</g>
		<rect x="106.8" y="267.3" class="st8" width="42.3" height="42.3"/>
		<g>
			<g>
				<g>
					<path class="st9" d="M212.8,167.6h-196c-2.9,0-5.3-2.4-5.3-5.3v-21.5c0-2.9,2.4-5.3,5.3-5.3h196c2.9,0,5.3,2.4,5.3,5.3v21.5
						C218.1,165.2,215.7,167.6,212.8,167.6z"/>
					<g class="st10">
						<g>
							<path class="st5" d="M50.1,144.8C50.1,144.8,50.1,144.8,50.1,144.8C50.1,144.7,50.1,144.7,50.1,144.8
								c-0.1-0.1-0.1-0.1-0.1-0.1l0,0c0,0,0,0,0,0l0,0l-4.6-2.6c-0.1-0.1-0.4-0.1-0.5,0l-4.6,2.6c0,0,0,0,0,0l0,0l0,0l0,0
								c0,0,0,0,0,0.1v0c0,0,0,0.1,0,0.1v4.9l-3.5,2v-9.5c0,0,0-0.1,0-0.1c0,0,0,0,0,0c0,0,0,0,0,0c0,0,0,0,0,0l0,0
								c0.1,0,0.1,0,0.1,0l0,0l-4.6-2.6c-0.1-0.1-0.3-0.1-0.5,0l-4.5,2.6l0,0l-0.1,0l0,0v0c0,0,0,0,0,0.1v0c0,0,0,0.1,0,0.1v15.6
								c0,0.1,0,0.2,0.1,0.2c0,0.1,0.1,0.1,0.2,0.2l9.1,5.3c0,0,0,0,0.1,0h0c0,0,0.1,0,0.1,0s0.1,0,0.1,0h0c0,0,0,0,0.1,0l9.1-5.3
								c0.1-0.1,0.2-0.3,0.2-0.4v-5l4.3-2.5c0.1,0,0.1-0.1,0.2-0.2s0-0.2,0-0.2V145C50.2,144.9,50.2,144.9,50.1,144.8z M45.1,147
								l-3.5-2l3.5-2l3.5,2L45.1,147z M31.4,140.4l3.5,2l-3.5,2l-3.5-2L31.4,140.4z M35.4,143.3v9.2l-2.1,1.2l-1.4,0.8v-9.2
								L35.4,143.3z M35.4,162.3l-8-4.7v-14.4l3.5,2v10.1v0v0c0,0,0,0,0,0c0,0,0,0,0,0c0,0,0,0,0,0l0,0l0,0l4.3,2.5L35.4,162.3
								L35.4,162.3L35.4,162.3z M35.9,157.4l-3.5-2l8-4.6l3.5,2L35.9,157.4z M44.6,157.7l-8,4.6v-4l8-4.5V157.7z M44.6,151.9l-3.5-2
								v-4l3.5,2V151.9z M49.1,149.9l-3.5,2v-4l3.5-2V149.9z"/>
						</g>
						<path class="st5" d="M113.2,152.8h-48c-0.9,0-1.6-0.7-1.6-1.6v-0.7c0-0.9,0.7-1.6,1.6-1.6h48c0.9,0,1.6,0.7,1.6,1.6v0.7
							C114.8,152.1,114.1,152.8,113.2,152.8z"/>
					</g>
				</g>
				<g class="st11">
					<g>
						<g>
							<g>
								<defs>
									<rect id="SVGID_00000042724995193470754100000001042291184624908945_" x="24.9" y="181.4" width="24.8" height="24.8"/>
								</defs>
								<clipPath id="SVGID_00000035504379249746751500000017364828265546121345_">
									<use xlink:href="#SVGID_00000042724995193470754100000001042291184624908945_"  style="overflow:visible;"/>
								</clipPath>
								<g style="clip-path:url(#SVGID_00000035504379249746751500000017364828265546121345_);">
									<path class="st5" d="M37.3,206.2c-0.3,0-0.7,0-1-0.3l-3-1.8c-0.4-0.3-0.2-0.3,0-0.4c0.6-0.2,0.7-0.3,1.4-0.6
										c0,0,0.2,0,0.2,0l2.3,1.4c0,0,0.2,0,0.3,0l9.1-5.2c0,0,0.2-0.2,0.2-0.2v-10.5c0-0.1,0-0.2-0.2-0.2l-9.1-5.2
										c0,0-0.2,0-0.3,0l-9,5.2c0,0-0.2,0.2-0.2,0.2v10.4c0,0.1,0,0.2,0.2,0.2l2.5,1.4c1.4,0.7,2.2-0.1,2.2-1v-10.2
										c0-0.2,0.1-0.3,0.3-0.3h1.2c0.2,0,0.3,0.1,0.3,0.3v10.3c0,1.8-1,2.8-2.6,2.8c-0.6,0-0.9,0-2.1-0.6l-2.4-1.3
										c-0.6-0.3-1-1-1-1.7v-10.5c0-0.7,0.3-1.3,1-1.7l9-5.2c0.6-0.3,1.4-0.3,1.9,0l9.1,5.3c0.6,0.3,1,1,1,1.7V199
										c0,0.7-0.3,1.3-1,1.7l-9,5.2C38,206.1,37.7,206.2,37.3,206.2z M44.6,195.9c0-2-1.3-2.5-4.1-2.9c-2.8-0.4-3.1-0.6-3.1-1.2
										c0-0.6,0.2-1.3,2.3-1.3c1.8,0,2.5,0.4,2.8,1.7c0,0.1,0.1,0.2,0.3,0.2H44c0,0,0.2,0,0.2,0s0-0.1,0-0.2
										c-0.2-2.2-1.6-3.2-4.5-3.2c-2.6,0-4.2,1.1-4.2,2.9c0,2,1.6,2.5,4,2.8c3,0.3,3.2,0.7,3.2,1.3c0,1-0.8,1.4-2.7,1.4
										c-2.4,0-2.9-0.6-3.1-1.8c0-0.1-0.1-0.2-0.3-0.2h-1.1c-0.2,0-0.3,0.1-0.3,0.3c0,1.5,0.8,3.4,4.8,3.4
										C43,199,44.6,197.9,44.6,195.9z"/>
								</g>
							</g>
						</g>
					</g>
					<path class="st5" d="M138.8,195.1H65.5c-1.1,0-2-0.9-2-2l0,0c0-1.1,0.9-2,2-2h73.3c1.1,0,2,0.9,2,2l0,0
						C140.7,194.2,139.9,195.1,138.8,195.1z"/>
				</g>
				<g class="st11">
					<path class="st5" d="M119,236.3H65.2c-0.9,0-1.7-0.8-1.7-1.7V234c0-0.9,0.8-1.7,1.7-1.7H119c0.9,0,1.7,0.8,1.7,1.7v0.5
						C120.7,235.5,119.9,236.3,119,236.3z"/>
					<g>
						<path class="st13" d="M49,241.3c-1.3,0-2.4,0.1-3.2,0.5c-0.3,0.1-0.7,0.1-0.7,0.4c0.1,0.1,0.2,0.3,0.3,0.5
							c0.2,0.3,0.6,0.8,0.9,1l1.1,0.8c0.7,0.4,1.4,0.6,2,1c0.4,0.2,0.7,0.5,1.1,0.8c0.2,0.1,0.3,0.4,0.5,0.4v-0.1
							c-0.1-0.1-0.2-0.4-0.3-0.5l-0.5-0.5c-0.5-0.6-1.1-1.2-1.7-1.7c-0.5-0.4-1.7-0.9-1.9-1.5l0,0c0.4,0,0.8-0.2,1.2-0.3
							c0.6-0.1,1.1-0.1,1.7-0.3l0.8-0.2v-0.1c-0.3-0.3-0.5-0.7-0.8-1c-0.9-0.7-1.8-1.4-2.8-2c-0.5-0.3-1.2-0.5-1.7-0.8
							c-0.2-0.1-0.5-0.1-0.7-0.3c-0.3-0.4-0.5-0.8-0.7-1.3l-1.4-2.9c-0.3-0.6-0.5-1.3-0.9-1.9c-1.7-2.8-3.6-4.5-6.5-6.2
							c-0.6-0.3-1.4-0.5-2.1-0.7l-1.3-0.1c-0.3-0.1-0.5-0.4-0.8-0.6c-1-0.6-3.4-1.9-4.1-0.2c-0.5,1.1,0.7,2.1,1.1,2.7
							c0.3,0.4,0.7,0.8,0.9,1.2c0.1,0.3,0.1,0.6,0.3,0.9c0.3,0.7,0.5,1.5,0.9,2.2c0.2,0.3,0.4,0.7,0.6,1c0.1,0.2,0.4,0.3,0.4,0.6
							c-0.2,0.3-0.3,0.8-0.4,1.2c-0.6,1.9-0.4,4.2,0.5,5.6c0.3,0.4,0.9,1.3,1.8,1c0.8-0.3,0.6-1.2,0.8-2.1c0.1-0.2,0-0.3,0.1-0.5v0
							l0.7,1.4c0.5,0.8,1.4,1.7,2.2,2.2c0.4,0.3,0.7,0.8,1.2,1v-0.1h0c-0.1-0.1-0.3-0.2-0.4-0.3c-0.3-0.3-0.6-0.7-0.9-1
							c-0.7-0.9-1.3-2-1.9-3c-0.3-0.5-0.5-1.1-0.7-1.6c-0.1-0.2-0.1-0.5-0.3-0.6c-0.3,0.4-0.6,0.7-0.8,1.1c-0.3,0.7-0.4,1.6-0.5,2.5
							c-0.1,0,0,0-0.1,0c-0.5-0.1-0.7-0.7-0.9-1.1c-0.5-1.2-0.6-3.1-0.2-4.4c0.1-0.3,0.6-1.4,0.4-1.8c-0.1-0.3-0.4-0.5-0.6-0.7
							c-0.2-0.3-0.5-0.7-0.6-1.1c-0.4-0.9-0.6-2-1-2.9c-0.2-0.4-0.6-0.9-0.8-1.3c-0.3-0.4-0.7-0.8-0.9-1.3c-0.1-0.2-0.2-0.5-0.1-0.7
							c0-0.1,0.1-0.2,0.2-0.2c0.2-0.2,0.8,0.1,1.1,0.1c0.6,0.2,1.1,0.5,1.7,0.8c0.2,0.2,0.5,0.5,0.8,0.6h0.4c0.5,0.1,1.1,0,1.6,0.2
							c0.9,0.3,1.7,0.7,2.4,1.1c2.2,1.4,4,3.3,5.2,5.7c0.2,0.4,0.3,0.7,0.5,1.1c0.4,0.8,0.8,1.6,1.1,2.4c0.4,0.8,0.7,1.6,1.2,2.2
							c0.3,0.3,1.3,0.5,1.7,0.7c0.3,0.1,0.9,0.3,1.2,0.5c0.6,0.3,1.1,0.7,1.7,1.1C48.2,240.5,49,240.9,49,241.3L49,241.3z M32,226.8
							c-0.2,0-0.5,0-0.7,0.1v0h0c0.1,0.3,0.4,0.4,0.5,0.7l0.4,0.8l0,0c0.2-0.2,0.4-0.4,0.4-0.8c-0.1-0.1-0.1-0.2-0.2-0.3
							C32.3,227,32.1,226.9,32,226.8L32,226.8z"/>
					</g>
				</g>
			</g>
			<g class="st14">
				<path class="st5" d="M17,98.3c0.5,0,1.1,0,1.7,0.1c0.6,0,1.1,0.1,1.7,0.3l-0.1,1.1c-0.5,0-1,0-1.5,0s-1.1,0-1.7,0
					c-0.4,0-0.7,0-1,0c-0.3,0-0.5,0.1-0.7,0.2c-0.2,0.1-0.3,0.3-0.4,0.5c-0.1,0.2-0.1,0.5-0.1,0.9c0,0.6,0.1,1,0.3,1.2
					s0.6,0.4,1,0.5l2.2,0.6c0.9,0.2,1.4,0.6,1.8,1.1s0.5,1.2,0.5,2c0,0.6-0.1,1.2-0.2,1.6s-0.4,0.7-0.7,0.9
					c-0.3,0.2-0.7,0.4-1.2,0.4c-0.5,0.1-1.1,0.1-1.7,0.1c-0.4,0-0.8,0-1.4,0c-0.6,0-1.3-0.1-2.1-0.3l0.1-1.2c0.6,0,1.1,0,1.5,0.1
					c0.4,0,0.7,0,1,0s0.6,0,0.9,0c0.5,0,1,0,1.3-0.1s0.5-0.2,0.7-0.5c0.1-0.2,0.2-0.6,0.2-1c0-0.4,0-0.7-0.1-0.9s-0.2-0.4-0.4-0.5
					s-0.5-0.2-0.8-0.3l-2.3-0.6c-0.8-0.2-1.4-0.6-1.7-1.1c-0.3-0.5-0.5-1.2-0.5-2c0-0.6,0.1-1.2,0.2-1.6s0.4-0.7,0.7-0.9
					c0.3-0.2,0.7-0.3,1.1-0.4S16.4,98.3,17,98.3z"/>
				<path class="st5" d="M27.2,101.7v1.2h-5.4v-1.1l1.5-0.1H27.2z M24.8,99.4v7.9c0,0.4,0.1,0.6,0.2,0.8c0.2,0.2,0.4,0.2,0.8,0.2H27
					l0.2,1.1c-0.2,0.1-0.4,0.1-0.6,0.1s-0.5,0.1-0.7,0.1s-0.4,0-0.6,0c-0.7,0-1.2-0.2-1.5-0.5c-0.4-0.4-0.5-0.9-0.5-1.6v-8.1
					L24.8,99.4L24.8,99.4z"/>
				<path class="st5" d="M34.6,104.7l0,1.1l-3.7,0c-0.4,0-0.6,0.1-0.8,0.3c-0.1,0.2-0.2,0.4-0.2,0.7v0.5c0,0.4,0.1,0.7,0.3,0.8
					c0.2,0.2,0.5,0.3,0.9,0.3c0.3,0,0.6-0.1,1-0.2s0.7-0.3,1.1-0.5c0.4-0.2,0.7-0.5,1-0.9v1c-0.1,0.1-0.3,0.3-0.5,0.5
					s-0.5,0.4-0.8,0.6s-0.6,0.4-1,0.5c-0.4,0.1-0.8,0.2-1.2,0.2c-0.5,0-0.9-0.1-1.2-0.2c-0.4-0.2-0.6-0.4-0.8-0.7s-0.3-0.7-0.3-1.2
					v-0.8c0-0.6,0.2-1.1,0.6-1.4c0.4-0.3,0.9-0.5,1.6-0.5C30.6,104.7,34.6,104.7,34.6,104.7z M32.6,101.5c0.6,0,1.1,0.1,1.5,0.2
					c0.4,0.2,0.7,0.4,0.9,0.8c0.2,0.4,0.3,0.9,0.3,1.5v5.4h-1.2l-0.2-1.7l-0.1-0.2v-3.6c0-0.5-0.1-0.8-0.3-1
					c-0.2-0.2-0.6-0.3-1.2-0.3c-0.4,0-0.9,0-1.5,0.1c-0.6,0-1.2,0.1-1.8,0.1l-0.1-1.1c0.4-0.1,0.8-0.1,1.2-0.2
					c0.4-0.1,0.9-0.1,1.4-0.1S32.2,101.5,32.6,101.5z"/>
				<path class="st5" d="M41.1,101.5c0.2,0,0.5,0,0.8,0s0.6,0.1,0.9,0.1c0.3,0.1,0.6,0.1,0.9,0.2l-0.2,1c-0.4,0-0.8-0.1-1.1-0.1
					c-0.4,0-0.7,0-1,0c-0.6,0-1.1,0.1-1.4,0.2c-0.3,0.2-0.6,0.4-0.7,0.8s-0.2,1-0.2,1.7s0.1,1.3,0.2,1.7s0.4,0.7,0.7,0.9
					c0.3,0.2,0.8,0.2,1.4,0.2c0.2,0,0.4,0,0.6,0s0.5,0,0.8,0c0.3,0,0.6-0.1,0.9-0.1l0.1,1c-0.4,0.1-0.8,0.3-1.3,0.3s-1,0.1-1.4,0.1
					c-0.9,0-1.7-0.1-2.2-0.4s-0.9-0.7-1.2-1.3c-0.2-0.6-0.4-1.4-0.4-2.4c0-1,0.1-1.8,0.4-2.4c0.2-0.6,0.7-1,1.2-1.3
					C39.4,101.6,40.2,101.5,41.1,101.5z"/>
				<path class="st5" d="M47.1,98.3l0,4.9c0,0.3,0,0.7,0,1c0,0.3-0.1,0.6-0.1,0.9c0.1,0.3,0.1,0.6,0.1,0.9c0,0.3,0,0.6,0,0.9v2.6
					h-1.5V98.3H47.1z M48.4,104.6v1.1h-1.8v-1.1H48.4z M52.2,101.7l-2.4,2.8c-0.1,0.1-0.2,0.2-0.3,0.3c-0.1,0.1-0.2,0.2-0.3,0.2v0
					c0.1,0.1,0.2,0.1,0.3,0.3c0.1,0.1,0.2,0.3,0.3,0.4l2.6,3.7h-1.8l-3-4.5l2.8-3.3L52.2,101.7L52.2,101.7z"/>
			</g>
		</g>
		<g>
			<g>
				<g class="st11">
					<g class="st10">
						<path class="st5" d="M129.1,341H65.4c-1,0-1.8-0.8-1.8-1.8V339c0-1,0.8-1.8,1.8-1.8h63.7c1,0,1.8,0.8,1.8,1.8v0.2
							C131,340.2,130.1,341,129.1,341z"/>
						<g>
							<g>
								<path class="st5" d="M48.1,335.7c-1.1-1.1-2.5-1.9-4.1-2.2c-0.9-1.4-2.1-2.4-3.6-2.9c-0.7-0.3-1.5-0.4-2.3-0.4
									c-3.7,0-6.8,2.9-7,6.6c-2.8,0.4-4.9,2.7-4.9,5.6c0,3.1,2.4,5.6,5.6,5.6h11c4,0,7.3-3.3,7.3-7.3
									C50.1,338.8,49.4,337.1,48.1,335.7z M42.8,346.2h-11c-2.1,0-3.8-1.7-3.8-3.8s1.7-3.8,3.8-3.8H32c0.5,0,0.9-0.4,0.9-0.9v-0.4
									c0-2.9,2.4-5.2,5.2-5.2c0.6,0,1.2,0.1,1.7,0.3c1.2,0.4,2.2,1.3,2.9,2.5c0.2,0.3,0.4,0.4,0.7,0.5c1.3,0.1,2.5,0.7,3.4,1.7
									c0.9,1,1.5,2.4,1.5,3.7C48.3,343.7,45.8,346.2,42.8,346.2z"/>
								<path class="st5" d="M40,338.8h-1.5l1.9-2.4c0.3-0.4,0.2-0.9-0.2-1.3s-0.9-0.2-1.3,0.2l-2.8,3.7c-0.2,0.3-0.3,0.7-0.1,1.1
									c0.2,0.4,0.5,0.6,0.9,0.6h1.5l-2,2.4c-0.3,0.4-0.3,0.9,0.1,1.3c0.2,0.2,0.4,0.2,0.6,0.2c0.2,0,0.5-0.1,0.7-0.3l3.1-3.7
									c0.2-0.3,0.3-0.7,0.2-1.1C40.8,339.1,40.4,338.8,40,338.8z"/>
							</g>
						</g>
					</g>
				</g>
				<g class="st11">
					<path class="st5" d="M107,383.3H65c-0.8,0-1.5-0.7-1.5-1.5v-0.9c0-0.8,0.7-1.5,1.5-1.5h42c0.8,0,1.5,0.7,1.5,1.5v0.9
						C108.5,382.6,107.9,383.3,107,383.3z"/>
					<g>
						<path class="st5" d="M45.2,378.3c-0.3,0-0.5-0.2-0.8-0.2c0-0.2,0-0.3,0.1-0.6c0.6-2.9,0.2-5.2-1.1-6c-1.3-0.7-3.4,0-5.4,1.8
							c-0.2,0.2-0.4,0.3-0.6,0.6c-0.1-0.1-0.3-0.2-0.4-0.4c-2.2-2-4.4-2.8-5.7-2c-1.3,0.7-1.7,2.9-1.1,5.6c0,0.3,0.1,0.6,0.2,0.8
							c-0.3,0-0.6,0.2-0.9,0.3c-2.6,0.9-4.4,2.4-4.4,3.8c0,1.5,2,3,4.6,3.9c0.2,0,0.4,0.2,0.7,0.2c0,0.3-0.2,0.6-0.2,0.9
							c-0.5,2.6-0.1,4.8,1.2,5.5c1.3,0.8,3.5,0,5.6-1.9c0.2-0.2,0.3-0.3,0.5-0.4c0.2,0.2,0.4,0.4,0.7,0.6c2,1.8,4.1,2.5,5.4,1.8
							c1.3-0.8,1.7-3,1.2-5.8c0-0.2,0-0.4-0.2-0.7c0.2,0,0.3,0,0.4-0.2c2.8-0.8,4.8-2.4,4.8-3.9C49.7,380.6,47.8,379.2,45.2,378.3z
							 M38.6,374.2c1.8-1.6,3.5-2.1,4.3-1.7c0.8,0.4,1.1,2.4,0.6,4.9c0,0.2,0,0.3-0.1,0.5c-1.1-0.2-2.1-0.4-3.2-0.5
							c-0.6-0.9-1.3-1.8-2-2.5C38.3,374.5,38.4,374.4,38.6,374.2z M33.1,384.6c0.2,0.4,0.5,0.8,0.8,1.2c-0.8,0-1.5-0.2-2.2-0.3
							c0.2-0.7,0.4-1.4,0.8-2.1C32.6,383.7,32.9,384.2,33.1,384.6z M31.6,378.8c0.7-0.2,1.4-0.3,2.2-0.4c-0.3,0.4-0.5,0.8-0.7,1.2
							c-0.2,0.4-0.4,0.8-0.7,1.3C32.1,380.2,31.9,379.5,31.6,378.8z M32.9,382.1c0.3-0.7,0.7-1.3,1.1-2c0.4-0.7,0.8-1.3,1.2-1.9
							c0.7,0,1.4,0,2.2,0c0.7,0,1.5,0,2.2,0c0.4,0.6,0.8,1.2,1.2,1.8c0.4,0.6,0.7,1.3,1.1,2c-0.3,0.7-0.7,1.3-1.1,2
							c-0.4,0.7-0.8,1.3-1.2,1.9c-0.7,0-1.4,0-2.2,0s-1.5,0-2.2,0c-0.4-0.6-0.8-1.2-1.2-1.9C33.6,383.3,33.3,382.8,32.9,382.1z
							 M41.6,384.6c0.2-0.4,0.4-0.8,0.7-1.3c0.3,0.7,0.6,1.4,0.8,2.1c-0.7,0.2-1.5,0.3-2.3,0.4C41.1,385.4,41.4,385,41.6,384.6z
							 M42.3,380.9c-0.2-0.4-0.4-0.8-0.7-1.3c-0.2-0.4-0.5-0.8-0.7-1.2c0.8,0.1,1.5,0.2,2.2,0.4C42.9,379.5,42.6,380.2,42.3,380.9z
							 M37.3,375.5c0.5,0.6,1,1.1,1.4,1.7c-1,0-1.9,0-2.9,0C36.4,376.6,36.9,376,37.3,375.5z M31.7,372.5c0.8-0.4,2.6,0.2,4.5,1.9
							c0.1,0.1,0.2,0.2,0.4,0.3c-0.7,0.8-1.4,1.7-2.1,2.5c-1.1,0.1-2.2,0.3-3.2,0.5c0-0.2-0.1-0.5-0.2-0.7
							C30.7,374.7,31,373,31.7,372.5z M30.6,385.2c-0.2,0-0.4-0.1-0.6-0.2c-1.1-0.3-2.2-0.8-3.1-1.5c-0.6-0.4-0.8-0.9-1-1.4
							c0-0.9,1.6-2,3.8-2.8c0.3-0.1,0.6-0.2,0.8-0.3c0.3,1.1,0.7,2.1,1.2,3.1C31.3,383.1,30.9,384.1,30.6,385.2z M36.2,389.9
							c-0.8,0.7-1.7,1.3-2.8,1.7c-0.6,0.3-1.2,0.3-1.7,0c-0.8-0.4-1.1-2.1-0.7-4.4c0-0.3,0.1-0.6,0.2-0.8c1.1,0.2,2.2,0.4,3.2,0.4
							c0.6,0.9,1.4,1.8,2.1,2.6C36.5,389.7,36.3,389.8,36.2,389.9z M37.4,388.8c-0.5-0.6-1-1.1-1.4-1.7c0.4,0,0.9,0,1.4,0
							c0.5,0,1,0,1.4,0C38.3,387.6,37.9,388.2,37.4,388.8z M43.7,390.2c0,0.6-0.3,1.2-0.8,1.5c-0.8,0.4-2.4-0.1-4.2-1.7
							c-0.2-0.2-0.4-0.3-0.6-0.6c0.7-0.8,1.4-1.7,2-2.6c1.1,0,2.2-0.3,3.2-0.5c0,0.2,0,0.4,0.1,0.6C43.8,388,43.8,389.2,43.7,390.2z
							 M44.6,385c-0.1,0-0.3,0-0.4,0.1c-0.3-1.1-0.8-2.1-1.2-3.1c0.4-1,0.8-2,1.2-3c0.3,0,0.5,0.2,0.7,0.2c2.2,0.8,3.8,1.9,3.8,2.8
							C48.6,383,47,384.2,44.6,385z M37.3,384.3c1.2,0,2.2-1,2.2-2.2s-1-2.2-2.2-2.2c-1.2,0-2.2,1-2.2,2.2
							C35.1,383.3,36.1,384.3,37.3,384.3z"/>
					</g>
				</g>
				<g class="st11">
					<path class="st5" d="M119,424.5H65.2c-0.9,0-1.7-0.8-1.7-1.7v-0.5c0-0.9,0.8-1.7,1.7-1.7H119c0.9,0,1.7,0.8,1.7,1.7v0.5
						C120.7,423.7,119.9,424.5,119,424.5z"/>
					<g>
						<g>
							<path class="st5" d="M45.8,427l-0.1-0.1c-0.3-0.2-0.7-0.3-1.5-0.6h0c-0.3,0-0.6-0.2-0.7-0.2l0,0c-0.2-0.2-0.3-0.4-0.3-0.7
								c0-0.3,0.1-0.5,0.3-0.7l1.5-1.5c2.6-2.6,2.6-6.8,0-9.5c-1.8-1.8-4.2-2.8-6.9-2.8c-3,0-6.1,1.3-8.4,3.6
								c-2.1,2.2-3.3,5-3.3,8.1s1.2,6,3.4,8.1c2.2,2.2,5,3.4,8.1,3.4c3,0,5.9-1.2,8.1-3.4c0.5-0.5,0.7-1.1,0.7-1.8
								C46.6,428.1,46.3,427.4,45.8,427z M44.7,429.4c-1.8,1.9-4.3,2.9-6.8,2.9c-2.6,0-5-1-6.9-2.9c-1.8-1.8-2.9-4.2-2.9-6.8
								s1-5,2.8-6.9c2-2,4.6-3.1,7.2-3.1c2.3,0,4.2,0.8,5.7,2.3c2,2,2,5.1,0,7.1l-1.5,1.5c-0.5,0.5-0.7,1.2-0.7,1.9
								c0,0.8,0.3,1.4,0.7,1.9c0.5,0.5,1.4,0.7,1.6,0.8c0.5,0.1,0.7,0.2,0.9,0.3c0.1,0.1,0.2,0.3,0.2,0.5
								C44.9,429,44.8,429.3,44.7,429.4z"/>
							<path class="st5" d="M38.5,424.2c-0.5,0-1,0.4-1,1s0.4,1,1,1c0.5,0,1-0.4,1-1S39.1,424.2,38.5,424.2z"/>
							<path class="st5" d="M42.7,420.6c0-1.3-1-2.3-2.3-2.3s-2.3,1-2.3,2.3c0,1.3,1,2.3,2.3,2.3S42.7,421.9,42.7,420.6z
								 M40.4,421.3c-0.3,0-0.6-0.3-0.6-0.6s0.3-0.6,0.6-0.6s0.6,0.3,0.6,0.6C41,421,40.7,421.3,40.4,421.3z"/>
							<path class="st5" d="M38.7,416.6c0-1.5-1.3-2.8-2.8-2.8s-2.8,1.3-2.8,2.8s1.3,2.8,2.8,2.8S38.7,418.2,38.7,416.6z
								 M35.9,417.7c-0.6,0-1.1-0.5-1.1-1.1c0-0.6,0.5-1.1,1.1-1.1s1.1,0.5,1.1,1.1S36.5,417.7,35.9,417.7z"/>
						</g>
					</g>
				</g>
			</g>
			<g class="st14">
				<path class="st5" d="M18.3,286.7c0.1,0,0.3,0,0.4,0.1c0.1,0.1,0.2,0.2,0.2,0.3l3.5,10.6h-1.7l-2.8-8.9c0-0.1-0.1-0.3-0.1-0.5
					c0-0.2-0.1-0.3-0.1-0.5h-0.4c0,0.1-0.1,0.3-0.1,0.5c0,0.2-0.1,0.3-0.1,0.5l-2.8,8.9h-1.6l3.5-10.6c0-0.1,0.1-0.2,0.2-0.3
					s0.2-0.1,0.4-0.1H18.3z M20.3,293v1.3h-5.6V293H20.3z"/>
				<path class="st5" d="M25,289.9l0.2,1.6l0.1,0.2v5l-0.1,0.2c0,0.3,0.1,0.6,0.1,0.9s0,0.6,0,0.9v2.2h-1.5v-11H25z M28.3,289.7
					c1,0,1.6,0.4,2.1,1.1s0.6,1.7,0.6,3.1c0,1-0.1,1.8-0.3,2.4c-0.2,0.6-0.5,1-1,1.3c-0.4,0.2-1,0.4-1.7,0.4c-0.5,0-1-0.1-1.5-0.2
					c-0.5-0.1-1-0.4-1.4-0.7l0.1-0.9c0.5,0.1,0.9,0.3,1.3,0.3s0.8,0.1,1.2,0.1c0.4,0,0.8-0.1,1-0.2s0.4-0.4,0.6-0.8s0.2-1,0.2-1.7
					c0-0.7-0.1-1.3-0.2-1.7c-0.1-0.4-0.3-0.7-0.5-0.9c-0.2-0.2-0.6-0.3-1-0.3c-0.4,0-0.8,0.1-1.2,0.3s-0.8,0.5-1.4,0.9l-0.2-1
					c0.3-0.3,0.6-0.6,0.9-0.8s0.7-0.4,1.1-0.5C27.5,289.8,27.9,289.7,28.3,289.7z"/>
				<path class="st5" d="M34.3,289.9l0.2,1.6l0.1,0.2v5l-0.1,0.2c0,0.3,0.1,0.6,0.1,0.9s0,0.6,0,0.9v2.2h-1.5v-11H34.3z M37.7,289.7
					c1,0,1.6,0.4,2.1,1.1s0.6,1.7,0.6,3.1c0,1-0.1,1.8-0.3,2.4c-0.2,0.6-0.5,1-1,1.3c-0.4,0.2-1,0.4-1.7,0.4c-0.5,0-1-0.1-1.5-0.2
					c-0.5-0.1-1-0.4-1.4-0.7l0.1-0.9c0.5,0.1,0.9,0.3,1.3,0.3s0.8,0.1,1.2,0.1c0.4,0,0.8-0.1,1-0.2s0.4-0.4,0.6-0.8s0.2-1,0.2-1.7
					c0-0.7-0.1-1.3-0.2-1.7c-0.1-0.4-0.3-0.7-0.5-0.9c-0.2-0.2-0.6-0.3-1-0.3c-0.4,0-0.8,0.1-1.2,0.3s-0.8,0.5-1.4,0.9l-0.2-1
					c0.3-0.3,0.6-0.6,0.9-0.8s0.7-0.4,1.1-0.5C36.9,289.8,37.3,289.7,37.7,289.7z"/>
				<path class="st5" d="M45.1,289.7c0.3,0,0.7,0,1.1,0c0.4,0,0.8,0,1.2,0.1c0.4,0,0.7,0.1,1.1,0.1l-0.1,1.1c-0.5,0-1,0-1.5-0.1
					c-0.5,0-1,0-1.5,0c-0.5,0-0.8,0-1.1,0c-0.3,0-0.5,0.1-0.6,0.2c-0.1,0.1-0.2,0.3-0.2,0.7c0,0.4,0.1,0.6,0.3,0.7s0.5,0.2,0.8,0.3
					l2.2,0.5c0.6,0.2,1.1,0.4,1.4,0.7c0.3,0.3,0.4,0.8,0.4,1.5c0,0.6-0.1,1.1-0.4,1.4c-0.2,0.3-0.6,0.5-1.1,0.7
					c-0.5,0.1-1.1,0.2-1.9,0.2c-0.3,0-0.7,0-1.3,0c-0.6,0-1.2-0.1-1.9-0.2l0.1-1.1c0.2,0,0.5,0,0.8,0c0.3,0,0.6,0,0.9,0s0.7,0,1,0
					c0.6,0,1,0,1.4-0.1c0.3,0,0.6-0.1,0.7-0.3c0.1-0.1,0.2-0.4,0.2-0.6c0-0.4-0.1-0.6-0.3-0.7c-0.2-0.1-0.5-0.2-0.9-0.3l-2.2-0.5
					c-0.4-0.1-0.8-0.3-1.1-0.4c-0.3-0.2-0.4-0.4-0.6-0.7c-0.1-0.3-0.2-0.6-0.2-1.1c0-0.6,0.1-1.1,0.3-1.4s0.5-0.5,1-0.6
					C43.8,289.8,44.4,289.7,45.1,289.7z"/>
			</g>
		</g>
		<g>
			<g>
				<g class="st11">
					<g class="st10">
						<path class="st5" d="M152.3,524.8H65.4c-1.1,0-1.9-0.9-1.9-1.9v-0.1c0-1.1,0.9-1.9,1.9-1.9h86.8c1.1,0,1.9,0.9,1.9,1.9v0.1
							C154.2,524,153.3,524.8,152.3,524.8z"/>
						<g>
							<g>
								<path class="st5" d="M40.1,518.6v-0.9c0-2.8-2.1-5.2-4.8-5.4c-1.5-0.1-2.9,0.4-4,1.4c-1.1,1-1.7,2.4-1.7,3.8v1.1
									c-2,0.4-3.6,2.2-3.6,4.3v6.3c0,2.3,1.9,4.2,4.2,4.2h9.3c2.3,0,4.2-1.9,4.2-4.2v-6.4C43.6,520.8,42.1,519,40.1,518.6z
									 M32.3,514.8c0.8-0.7,1.8-1.1,2.8-0.9c1.9,0.2,3.3,1.9,3.3,3.8v0.8h-7.4v-1.1C31.1,516.5,31.5,515.5,32.3,514.8z
									 M42.1,529.3c0,1.4-1.2,2.6-2.6,2.6h-9.3c-1.4,0-2.6-1.2-2.6-2.6V523c0-1.6,1.3-2.8,2.8-2.8h8.8c1.6,0,2.9,1.3,2.9,2.8
									L42.1,529.3L42.1,529.3z"/>
								<path class="st5" d="M34.8,523.8c-0.4,0-0.8,0.4-0.8,0.8v3.7c0,0.4,0.3,0.8,0.8,0.8c0.4,0,0.8-0.4,0.8-0.8v-3.7
									C35.6,524.1,35.2,523.8,34.8,523.8z"/>
							</g>
						</g>
					</g>
				</g>
				<g class="st11">
					<path class="st5" d="M107,567.1H65c-0.8,0-1.5-0.7-1.5-1.5v-0.9c0-0.8,0.7-1.5,1.5-1.5h42c0.8,0,1.5,0.7,1.5,1.5v0.9
						C108.5,566.4,107.9,567.1,107,567.1z"/>
					<g>
						<g>
							<path class="st5" d="M42.5,556.4l-7.2-2c-0.3-0.1-0.6-0.1-0.9,0l-7.2,2c-0.7,0.2-1.3,0.9-1.3,1.7v5.3
								c0,5.5,3.3,10.4,8.3,12.4c0.2,0.1,0.4,0.1,0.6,0.1s0.4,0,0.6-0.1c5-2,8.3-6.9,8.3-12.4v-5.2
								C43.7,557.3,43.2,556.6,42.5,556.4z M42.1,563.3c0,4.8-2.9,9.2-7.3,10.9c0,0-0.1,0-0.1,0c-4.4-1.8-7.3-6.1-7.3-10.9v-5.3
								c0,0,0-0.1,0.1-0.1l7.2-2h0c0,0,0,0,0,0l7.2,2c0,0,0.1,0.1,0.1,0.1V563.3z"/>
							<path class="st5" d="M38.8,561.8l-4.9,4.1l-2.2-1.8c-0.4-0.3-0.9-0.2-1.1,0.1s-0.2,0.9,0.1,1.1l2.7,2.3
								c0.1,0.1,0.3,0.2,0.5,0.2c0.2,0,0.4-0.1,0.5-0.2l5.5-4.6c0.4-0.3,0.4-0.8,0.1-1.1C39.7,561.5,39.1,561.5,38.8,561.8z"/>
						</g>
					</g>
				</g>
				<g class="st11">
					<path class="st5" d="M119,608.3H65.2c-0.9,0-1.7-0.8-1.7-1.7v-0.5c0-0.9,0.8-1.7,1.7-1.7H119c0.9,0,1.7,0.8,1.7,1.7v0.5
						C120.7,607.5,119.9,608.3,119,608.3z"/>
					<g>
						<g>
							<path class="st5" d="M41.2,594.1H28.4c-1.3,0-2.3,1-2.3,2.3V615c0,1.3,1,2.3,2.3,2.3h12.7c1.3,0,2.3-1,2.3-2.3v-18.6
								C43.5,595.1,42.5,594.1,41.2,594.1z M41.8,615c0,0.3-0.3,0.6-0.6,0.6H28.4c-0.3,0-0.6-0.3-0.6-0.6v-18.5
								c0-0.3,0.3-0.6,0.6-0.6h12.7c0.3,0,0.6,0.3,0.6,0.6L41.8,615L41.8,615z"/>
							<path class="st5" d="M35.2,597.3h-3c-0.5,0-0.9,0.4-0.9,0.9s0.4,0.9,0.9,0.9h3c0.5,0,0.9-0.4,0.9-0.9
								C36.1,597.7,35.7,597.3,35.2,597.3z"/>
							<path class="st5" d="M37.7,597.3h-0.5c-0.5,0-0.9,0.4-0.9,0.9s0.4,0.9,0.9,0.9h0.5c0.5,0,0.9-0.4,0.9-0.9
								S38.2,597.3,37.7,597.3z"/>
							<path class="st5" d="M34.8,612.2c-0.5,0-0.9,0.4-0.9,0.9c0,0.5,0.4,0.9,0.9,0.9s0.9-0.4,0.9-0.9S35.3,612.2,34.8,612.2z"/>
						</g>
					</g>
				</g>
			</g>
			<g class="st14">
				<path class="st5" d="M24.4,470.5c0.4,0,0.6,0.2,0.6,0.7l0.4,10.4h-1.6l-0.4-9.7h-0.3l-2.3,7.9c-0.1,0.4-0.3,0.5-0.7,0.5h-1.3
					c-0.4,0-0.6-0.2-0.7-0.5l-2.3-7.9h-0.3l-0.4,9.7h-1.6l0.4-10.4c0-0.4,0.2-0.7,0.6-0.7h1.7c0.3,0,0.6,0.2,0.7,0.5l1.9,6.5
					c0.1,0.2,0.2,0.5,0.2,0.7c0.1,0.2,0.1,0.5,0.2,0.8h0.3c0.1-0.3,0.1-0.5,0.2-0.8c0.1-0.2,0.1-0.5,0.2-0.8L22,471
					c0.1-0.4,0.3-0.5,0.7-0.5H24.4z"/>
				<path class="st5" d="M31.2,473.5c0.9,0,1.7,0.1,2.2,0.4c0.5,0.3,0.9,0.7,1.2,1.3c0.2,0.6,0.4,1.4,0.4,2.4c0,1-0.1,1.8-0.4,2.4
					c-0.2,0.6-0.6,1-1.2,1.3c-0.5,0.3-1.3,0.4-2.2,0.4c-0.9,0-1.6-0.1-2.2-0.4c-0.5-0.3-0.9-0.7-1.2-1.3c-0.2-0.6-0.4-1.4-0.4-2.4
					c0-1,0.1-1.8,0.4-2.4c0.2-0.6,0.6-1,1.2-1.3C29.6,473.6,30.3,473.5,31.2,473.5z M31.2,474.8c-0.5,0-1,0.1-1.3,0.3
					c-0.3,0.2-0.5,0.5-0.7,0.9c-0.1,0.4-0.2,1-0.2,1.7c0,0.7,0.1,1.3,0.2,1.7c0.1,0.4,0.3,0.7,0.7,0.9c0.3,0.2,0.7,0.2,1.3,0.2
					c0.5,0,1-0.1,1.3-0.2c0.3-0.2,0.5-0.5,0.7-0.9c0.1-0.4,0.2-1,0.2-1.7c0-0.7-0.1-1.3-0.2-1.7c-0.1-0.4-0.3-0.7-0.7-0.9
					C32.2,474.8,31.7,474.8,31.2,474.8z"/>
				<path class="st5" d="M38.2,473.7l0.2,1.5l0.1,0.2v6.1H37v-7.8L38.2,473.7L38.2,473.7z M42,473.5l-0.2,1.4h-0.5
					c-0.4,0-0.9,0.1-1.3,0.3c-0.5,0.2-1,0.4-1.7,0.7l-0.1-0.9c0.6-0.5,1.1-0.8,1.7-1.1s1.1-0.4,1.7-0.4L42,473.5L42,473.5z"/>
				<path class="st5" d="M46.6,473.5c1.2,0,2.1,0.2,2.6,0.6s0.8,1.1,0.8,1.9c0,0.7-0.1,1.2-0.5,1.6c-0.3,0.4-0.8,0.6-1.5,0.6h-4.5
					v-1.1h4.1c0.4,0,0.6-0.1,0.7-0.3c0.1-0.2,0.2-0.5,0.2-0.8c0-0.5-0.2-0.8-0.4-1s-0.7-0.3-1.4-0.3c-0.5,0-1,0.1-1.3,0.2
					c-0.3,0.2-0.5,0.4-0.6,0.8s-0.2,0.9-0.2,1.7c0,0.8,0.1,1.4,0.2,1.8c0.2,0.4,0.4,0.7,0.8,0.9c0.3,0.2,0.8,0.2,1.4,0.2
					c0.4,0,0.9,0,1.4-0.1c0.5,0,1-0.1,1.4-0.1l0.2,1c-0.3,0.1-0.6,0.2-0.9,0.3c-0.4,0.1-0.7,0.1-1.1,0.2s-0.7,0-1.1,0
					c-0.9,0-1.7-0.1-2.2-0.4s-1-0.7-1.2-1.3c-0.3-0.6-0.4-1.4-0.4-2.4c0-1,0.1-1.8,0.4-2.4s0.7-1,1.2-1.3S45.7,473.5,46.6,473.5z"/>
			</g>
		</g>
		<path class="st15" d="M48.8,698.5H20.9c-1.1,0-2.1-0.9-2.1-2.1v-27.9c0-1.2,0.9-2.1,2.1-2.1h27.9c1.2,0,2.1,0.9,2.1,2.1v27.9
			C50.9,697.6,49.9,698.5,48.8,698.5z"/>
		<g>
			<g>
				<path class="st16" d="M33.6,692.3c-0.2,0-0.4,0-0.7-0.1c-0.6-0.3-1-1-0.9-1.7l1-5.4h-6.2c-0.6,0-1.1-0.3-1.4-0.9
					s-0.2-1.2,0.1-1.6l7.7-10.3c0.4-0.5,1.1-0.8,1.7-0.5s1.1,0.8,1.1,1.5v4.8h6.8c0.6,0,1.2,0.3,1.4,0.9c0.3,0.5,0.2,1.2-0.2,1.6
					l-9.2,11.2C34.5,692.1,34,692.3,33.6,692.3z M34.5,673.2l-7.7,10.3l7.2,0c0.2,0,0.4,0.1,0.6,0.3s0.2,0.4,0.2,0.6l-1.2,6.3l0,0
					l9.2-11.2l-7.5,0c-0.4,0-0.8-0.3-0.8-0.8L34.5,673.2L34.5,673.2z"/>
			</g>
		</g>
		<path class="st17" d="M118.6,673.6H65.6c-1.1,0-2.1-0.9-2.1-2.1v-3c0-1.1,0.9-2.1,2.1-2.1h52.9c1.1,0,2.1,0.9,2.1,2.1v3
			C120.7,672.7,119.7,673.6,118.6,673.6z"/>
		<path class="st15" d="M105.1,689.6H64.8c-0.7,0-1.3-0.6-1.3-1.3V688c0-0.7,0.6-1.3,1.3-1.3h40.3c0.7,0,1.3,0.6,1.3,1.3v0.4
			C106.3,689,105.8,689.6,105.1,689.6z"/>
		<line class="st18" x1="232.4" y1="80.2" x2="1181" y2="80.2"/>
		<g>
			
				<image style="overflow:visible;enable-background:new    ;" width="128" height="128" xlink:href="../icons/user-male-circle.png"  transform="matrix(0.2385 0 0 0.2385 1118.1086 21.1304)">
			</image>
		</g>
		<path class="st17" d="M1100.8,29.8h-48.4c-0.8,0-1.5-0.7-1.5-1.5v-0.3c0-0.8,0.7-1.5,1.5-1.5h48.4c0.8,0,1.5,0.7,1.5,1.5v0.3
			C1102.3,29.2,1101.7,29.8,1100.8,29.8z"/>
		<path class="st17" d="M1101.2,42.2H1070c-0.6,0-1.1-0.5-1.1-1.1v-0.7c0-0.6,0.5-1.1,1.1-1.1h31.2c0.6,0,1.1,0.5,1.1,1.1V41
			C1102.3,41.6,1101.8,42.2,1101.2,42.2z"/>
		<path class="st9" d="M794.3,58.5H619.8c-8.9,0-16-7.2-16-16l0,0c0-8.9,7.2-16,16-16h174.5c8.9,0,16,7.2,16,16l0,0
			C810.3,51.4,803.2,58.5,794.3,58.5z"/>
		<g class="st10">
			<path class="st5" d="M633.4,50.9l-5.5-4.5c2.3-3.1,2.1-7.6-0.8-10.4c-1.5-1.5-3.5-2.4-5.7-2.4s-4.2,0.8-5.7,2.4
				c-3.1,3.1-3.1,8.2,0,11.4c1.5,1.5,3.5,2.4,5.7,2.4c2.1,0,4-0.8,5.5-2.2l5.6,4.5c0.1,0.1,0.3,0.2,0.5,0.2c0.2,0,0.4-0.1,0.6-0.3
				C633.7,51.7,633.7,51.2,633.4,50.9z M621.3,48.2c-1.7,0-3.4-0.7-4.6-1.9c-2.6-2.6-2.6-6.7,0-9.2c1.2-1.2,2.9-1.9,4.6-1.9
				s3.4,0.7,4.6,1.9c2.6,2.6,2.6,6.7,0,9.2C624.7,47.5,623.1,48.2,621.3,48.2z"/>
		</g>
		<path class="st7" d="M525.9,246.7H272.8c-4.1,0-7.4-3.3-7.4-7.4V125.7c0-4.1,3.3-7.4,7.4-7.4h253.1c4.1,0,7.4,3.3,7.4,7.4v113.6
			C533.3,243.4,530,246.7,525.9,246.7z"/>
		<path class="st7" d="M829.7,680.2H276.8c-6.3,0-11.3-5.1-11.3-11.3V291.1c0-6.3,5.1-11.3,11.3-11.3h552.9
			c6.3,0,11.3,5.1,11.3,11.3v377.8C841,675.2,835.9,680.2,829.7,680.2z"/>
		<path class="st7" d="M833.6,245.6H580.5c-4.1,0-7.4-3.3-7.4-7.4V124.6c0-4.1,3.3-7.4,7.4-7.4h253.1c4.1,0,7.4,3.3,7.4,7.4v113.6
			C841,242.3,837.7,245.6,833.6,245.6z"/>
		<path class="st7" d="M1141.2,245.6H888.1c-4.1,0-7.4-3.3-7.4-7.4V124.6c0-4.1,3.3-7.4,7.4-7.4h253.1c4.1,0,7.4,3.3,7.4,7.4v113.6
			C1148.6,242.3,1145.3,245.6,1141.2,245.6z"/>
		<path class="st7" d="M1141.2,681.6H888.1c-4.1,0-7.4-3.3-7.4-7.4V560.6c0-4.1,3.3-7.4,7.4-7.4h253.1c4.1,0,7.4,3.3,7.4,7.4v113.6
			C1148.6,678.2,1145.3,681.6,1141.2,681.6z"/>
		<path class="st7" d="M1138.7,516.2h-248c-5.5,0-10-4.5-10-10V293.4c0-5.5,4.5-10,10-10h248c5.5,0,10,4.5,10,10v212.8
			C1148.6,511.7,1144.2,516.2,1138.7,516.2z"/>
		<g>
			<circle class="st19" cx="325.2" cy="181.8" r="31.3"/>
			
				<image style="overflow:visible;enable-background:new    ;" width="128" height="128" xlink:href="../icons/star.png"  transform="matrix(0.3299 0 0 0.3299 304.0435 158.973)">
			</image>
		</g>
		<path class="st17" d="M479.5,167.2h-90.2c-1.5,0-2.8-1.3-2.8-2.8l0,0c0-1.5,1.3-2.8,2.8-2.8h90.2c1.5,0,2.8,1.3,2.8,2.8l0,0
			C482.3,166,481.1,167.2,479.5,167.2z"/>
		<path class="st17" d="M424.6,182.9h-35.3c-1.5,0-2.8-1.3-2.8-2.8l0,0c0-1.5,1.3-2.8,2.8-2.8h35.3c1.5,0,2.8,1.3,2.8,2.8l0,0
			C427.4,181.6,426.2,182.9,424.6,182.9z"/>
		<path class="st17" d="M1103.5,326.2h-90.2c-1.5,0-2.8-1.3-2.8-2.8l0,0c0-1.5,1.3-2.8,2.8-2.8h90.2c1.5,0,2.8,1.3,2.8,2.8l0,0
			C1106.3,325,1105,326.2,1103.5,326.2z"/>
	</g>
</g>
</svg>
