<svg xmlns="http://www.w3.org/2000/svg" viewBox="0 0 24 24">
  <path d="M5 3C3.898438 3 3 3.898438 3 5L3 19C3 20.101563 3.898438 21 5 21L19 21C20.101563 21 21 20.101563 21 19L21 5C21 3.898438 20.101563 3 19 3 Z M 15.5 7.5C16 7.5 16.40625 7.90625 16.40625 8.40625C16.40625 8.90625 16 9.3125 15.5 9.3125C15 9.3125 14.59375 8.90625 14.59375 8.40625C14.59375 7.90625 15 7.5 15.5 7.5 Z M 9.6875 7.90625L11.3125 7.90625L14 16.40625L12.09375 16.40625L11.59375 14.6875L9.3125 14.6875L8.8125 16.40625L7 16.40625 Z M 14.6875 10.09375L16.40625 10.09375L16.40625 16.40625L14.6875 16.40625 Z M 10.5 10.1875L9.6875 13.1875L11.3125 13.1875Z" fill="#FFFFFF" />
</svg>