<svg xmlns="http://www.w3.org/2000/svg" viewBox="0 0 16 16">
  <path d="M7.679688 0.957031C4.097656 0.855469 1.105469 3.691406 1.003906 7.273438C0.902344 10.855469 3.738281 13.851563 7.320313 13.953125C10.902344 14.050781 13.898438 11.21875 14 7.632813C14.019531 6.882813 13.90625 6.160156 13.6875 5.484375L12.863281 6.261719C12.960938 6.695313 13.011719 7.144531 13 7.609375C12.914063 10.640625 10.378906 13.035156 7.347656 12.953125C4.316406 12.867188 1.917969 10.332031 2 7.300781C2.085938 4.269531 4.621094 1.871094 7.652344 1.953125C8.644531 1.984375 9.566406 2.277344 10.359375 2.765625L11.109375 2.054688C10.125 1.398438 8.953125 0.992188 7.679688 0.957031 Z M 12.5 2.792969L6.5 8.792969L4.851563 7.148438L4.5 6.792969L3.792969 7.5L4.148438 7.851563L6.5 10.207031L13.207031 3.5Z" fill="#FFFFFF" />
</svg>