<svg xmlns="http://www.w3.org/2000/svg" viewBox="0 0 16 16">
  <path d="M8 1.0234375C7.736875 1.0234375 7.4742344 1.0924687 7.2402344 1.2304688L2.7402344 3.8789062C2.2832344 4.1469063 2 4.642875 2 5.171875L2 11.005859C2 11.554859 2.29925 12.059266 2.78125 12.322266L4.2558594 13.126953C4.4828594 13.250953 4.7286094 13.310547 4.9746094 13.310547C5.2386094 13.310547 5.4992812 13.239609 5.7382812 13.099609C6.1982812 12.826609 6.4726562 12.344594 6.4726562 11.808594L6.4726562 5.4648438L5.4726562 5.4648438L5.4726562 11.808594C5.4726562 12.065594 5.3025156 12.195281 5.2285156 12.238281C5.1555156 12.281281 4.959375 12.371047 4.734375 12.248047L3.2617188 11.445312C3.1007187 11.357312 3 11.188859 3 11.005859L3 5.171875C3 4.995875 3.0940938 4.8302344 3.2460938 4.7402344L7.7460938 2.0917969C7.9020937 1.9997969 8.0979062 2.0007969 8.2539062 2.0917969L12.753906 4.7402344C12.904906 4.8302344 13 4.995875 13 5.171875L13 11.009766C13 11.189766 12.900234 11.359219 12.740234 11.449219L8.2402344 13.900391C8.0902344 13.980391 7.9097656 13.980391 7.7597656 13.900391L6.8808594 13.419922C6.7108594 13.629922 6.5 13.810937 6.25 13.960938C6.17 14.010938 6.0897656 14.050078 6.0097656 14.080078L7.2792969 14.779297C7.5092969 14.899297 7.75 14.960938 8 14.960938C8.25 14.960938 8.4907031 14.899297 8.7207031 14.779297L13.220703 12.320312C13.700703 12.060313 14 11.559766 14 11.009766L14 5.171875C14 4.642875 13.717719 4.1469062 13.261719 3.8789062L8.7617188 1.2304688C8.5272187 1.0924688 8.263125 1.0234375 8 1.0234375 z M 9.4511719 5.3183594C7.8711719 5.3183594 7.0703125 5.8690781 7.0703125 6.9550781C7.0703125 8.1850781 8.4869687 8.3680781 9.1679688 8.4550781C9.2659688 8.4680781 9.352875 8.4791875 9.421875 8.4921875L9.7207031 8.5449219C10.760703 8.7189219 11 8.836875 11 9.171875C11 9.333875 10.999172 9.8242188 9.4511719 9.8242188C8.1381719 9.8242188 7.8691406 9.4346094 7.8691406 8.8496094L6.8691406 8.8496094C6.8691406 9.7516094 7.3171719 10.824219 9.4511719 10.824219C11.557172 10.824219 12 9.925875 12 9.171875C12 7.913875 10.777719 7.7076406 9.8867188 7.5566406L9.5996094 7.5078125C9.5166094 7.4928125 9.4119219 7.4788438 9.2949219 7.4648438C8.6589219 7.3828438 8.0703125 7.2650312 8.0703125 6.9570312C8.0703125 6.7340313 8.0691719 6.3193594 9.4511719 6.3183594C10.370172 6.3183594 10.837891 6.6207969 10.837891 7.2167969L11.837891 7.2167969C11.837891 6.2997969 11.209172 5.3183594 9.4511719 5.3183594 z" fill="#FFFFFF" />
</svg>