<svg xmlns="http://www.w3.org/2000/svg" viewBox="0 0 128 128">
  <path d="M93.363281 4.0996094C92.600781 4.0996094 91.850781 4.4 91.300781 5C90.100781 6.2 90.100781 8.0992188 91.300781 9.1992188L97.599609 15.5C94.899609 16.6 90.8 18.000391 86 18.400391C79.3 19.000391 70.499219 17.500391 67.199219 16.900391C65.499219 16.600391 64.400781 16.4 63.300781 17.5C63.000781 17.8 62.699609 18.199609 62.599609 18.599609L47.800781 61.599609C47.300781 63.199609 48.099219 64.900391 49.699219 65.400391C49.999219 65.500391 50.399219 65.599609 50.699219 65.599609C51.899219 65.599609 53.1 64.799609 53.5 63.599609L67.5 23C71.6 23.7 79.899609 25.000391 86.599609 24.400391C91.799609 23.900391 97.099219 22.4 102.19922 20L108.80078 26.599609C106.50078 30.999609 105.09922 35.699219 104.69922 40.699219C103.99922 47.899219 105.3 57.100391 106 61.400391L53.400391 79.699219L82.300781 50.800781C83.500781 49.600781 83.500781 47.699609 82.300781 46.599609C81.100781 45.399609 79.199609 45.399609 78.099609 46.599609L39.900391 84.699219C39.100391 85.499219 38.799219 86.700781 39.199219 87.800781C39.599219 89.000781 40.8 89.800781 42 89.800781C42.3 89.800781 42.7 89.699609 43 89.599609L110.19922 66.300781C110.59922 66.200781 111.00078 65.899609 111.30078 65.599609C112.40078 64.499609 112.30039 63.5 111.90039 61.5C111.30039 57.9 109.9 48.400781 110.5 41.300781C110.8 37.700781 111.69961 34.299609 113.09961 31.099609L119.5 37.5C120.1 38.1 120.89961 38.400391 121.59961 38.400391C122.29961 38.400391 123.09922 38.1 123.69922 37.5C124.89922 36.3 124.89922 34.400781 123.69922 33.300781L95.5 5C94.9 4.4 94.125781 4.0996094 93.363281 4.0996094 z M 15 20C7.8 20 2 25.8 2 33C2 39.1 6.3 44.299609 12 45.599609L12 53C12 87.7 40.3 116 75 116L82.400391 116C83.800391 121.7 88.9 126 95 126C102.2 126 108 120.2 108 113C108 105.8 102.2 100 95 100C88.9 100 83.700391 104.3 82.400391 110L75 110C43.6 110 18 84.4 18 53L18 45.599609C23.7 44.199609 28 39.1 28 33C28 25.8 22.2 20 15 20 z M 15 26C18.9 26 22 29.1 22 33C22 36.9 18.9 40 15 40C11.1 40 8 36.9 8 33C8 29.1 11.1 26 15 26 z M 93.261719 32.599609C92.499219 32.599609 91.749219 32.9 91.199219 33.5L88.199219 36.5C86.999219 37.7 86.999219 39.599219 88.199219 40.699219C88.799219 41.299219 89.600781 41.599609 90.300781 41.599609C91.000781 41.599609 91.800391 41.299219 92.400391 40.699219L95.400391 37.699219C96.600391 36.499219 96.600391 34.6 95.400391 33.5C94.800391 32.9 94.024219 32.599609 93.261719 32.599609 z M 95 106C98.9 106 102 109.1 102 113C102 116.9 98.9 120 95 120C91.1 120 88 116.9 88 113C88 109.1 91.1 106 95 106 z" fill="#FFFFFF" />
</svg>