<?xml version="1.0" encoding="utf-8"?>
<!-- Generator: Adobe Illustrator 27.0.0, SVG Export Plug-In . SVG Version: 6.00 Build 0)  -->
<svg version="1.1" xmlns="http://www.w3.org/2000/svg" xmlns:xlink="http://www.w3.org/1999/xlink" x="0px" y="0px"
	 viewBox="0 0 1180.957 719.879" style="enable-background:new 0 0 1180.957 719.879;" xml:space="preserve">
<style type="text/css">
	.st0{fill:none;stroke:#4D4D4D;stroke-width:0.4751;stroke-miterlimit:10;}
	.st1{fill:#1A1A1A;stroke:#4D4D4D;stroke-width:0.4751;stroke-miterlimit:10;}
	.st2{fill:#FFFFFF;}
	.st3{fill:#1A1A1A;}
	.st4{fill:url(#SVGID_1_);}
	.st5{fill:url(#SVGID_00000178201903926018336850000013296941816970366373_);}
	.st6{fill:url(#SVGID_00000109026625492030093480000006073330155130254224_);}
	.st7{fill:url(#SVGID_00000037680799398001044150000014312207695638453422_);}
	.st8{fill:url(#SVGID_00000155108442511297642410000009052786365102881470_);}
	.st9{display:none;}
	.st10{display:inline;fill:none;stroke:#000000;stroke-miterlimit:10;}
	.st11{fill:#C69C6D;}
	.st12{fill:#FFCC46;}
	.st13{fill:#9833D1;}
	.st14{fill:#E40C71;}
	.st15{fill:url(#SVGID_00000150073395301820417350000010111905761399814279_);}
	.st16{fill:#EB6A5D;}
	.st17{fill:#F3BE4F;}
	.st18{fill:#64C354;}
	.st19{opacity:0.12;fill:#8171FF;}
	.st20{fill:url(#SVGID_00000100346884217445206310000011137355114565253510_);}
	.st21{opacity:0.69;}
	.st22{fill:none;}
	.st23{opacity:0.1;fill:#FFFFFF;}
	.st24{opacity:0.85;}
	.st25{opacity:0.5;}
	.st26{clip-path:url(#SVGID_00000060740704715680235220000009335507822531412124_);}
	.st27{fill-rule:evenodd;clip-rule:evenodd;fill:#FFFFFF;}
	.st28{opacity:0.6;}
	.st29{fill:#00CFFD;}
	.st30{fill:#0E121E;}
	.st31{opacity:0.5;fill:#FFFFFF;}
	.st32{opacity:0.21;fill:none;stroke:#FFFFFF;stroke-miterlimit:10;}
	.st33{opacity:0.33;}
	.st34{opacity:0.21;fill:#999999;stroke:#FFFFFF;stroke-width:2;stroke-miterlimit:10;}
</style>
<g id="Layer_3">
</g>
<g id="Layer_2">
	<g class="st9">
		<circle class="st10" cx="1469.565" cy="722.174" r="324"/>
		<circle class="st10" cx="1469.565" cy="722.174" r="396"/>
		<line class="st10" x1="1001.565" y1="326.174" x2="2153.565" y2="326.174"/>
		<line class="st10" x1="1001.565" y1="1190.174" x2="1937.565" y2="254.174"/>
		<line class="st10" x1="1001.565" y1="1118.174" x2="1937.565" y2="182.174"/>
		<line class="st10" x1="1001.565" y1="1046.174" x2="1937.565" y2="110.174"/>
		<line class="st10" x1="1001.565" y1="974.174" x2="1937.565" y2="38.174"/>
		<line class="st10" x1="1001.565" y1="902.174" x2="1937.565" y2="-33.826"/>
		<line class="st10" x1="1001.565" y1="830.174" x2="1937.565" y2="-105.826"/>
		<line class="st10" x1="1001.565" y1="758.174" x2="1937.565" y2="-177.826"/>
		<line class="st10" x1="1001.565" y1="686.174" x2="1937.565" y2="-249.826"/>
		<line class="st10" x1="1001.565" y1="614.174" x2="1937.565" y2="-321.826"/>
		<line class="st10" x1="1001.565" y1="542.174" x2="1937.565" y2="-393.826"/>
		<line class="st10" x1="1001.565" y1="470.174" x2="1937.565" y2="-465.826"/>
		<line class="st10" x1="1001.565" y1="398.174" x2="1937.565" y2="-537.826"/>
		<line class="st10" x1="2081.565" y1="1190.174" x2="1145.565" y2="254.174"/>
		<line class="st10" x1="2009.565" y1="1190.174" x2="1073.565" y2="254.174"/>
		<line class="st10" x1="1937.565" y1="1190.174" x2="1001.565" y2="254.174"/>
		<line class="st10" x1="1865.565" y1="1190.174" x2="929.565" y2="254.174"/>
		<line class="st10" x1="1793.565" y1="1190.174" x2="857.565" y2="254.174"/>
		<line class="st10" x1="1721.565" y1="1190.174" x2="785.565" y2="254.174"/>
		<line class="st10" x1="1649.565" y1="1190.174" x2="713.565" y2="254.174"/>
		<line class="st10" x1="1577.565" y1="1190.174" x2="641.565" y2="254.174"/>
		<line class="st10" x1="1505.565" y1="1190.174" x2="569.565" y2="254.174"/>
		<line class="st10" x1="1433.565" y1="1190.174" x2="497.565" y2="254.174"/>
		<line class="st10" x1="1361.565" y1="1190.174" x2="425.565" y2="254.174"/>
		<line class="st10" x1="1289.565" y1="1190.174" x2="353.565" y2="254.174"/>
		<line class="st10" x1="1217.565" y1="1190.174" x2="281.565" y2="254.174"/>
		<line class="st10" x1="1145.565" y1="1190.174" x2="209.565" y2="254.174"/>
		<line class="st10" x1="1073.565" y1="1190.174" x2="137.565" y2="254.174"/>
		<line class="st10" x1="1073.565" y1="1190.174" x2="2009.565" y2="254.174"/>
		<line class="st10" x1="1145.565" y1="1190.174" x2="2081.565" y2="254.174"/>
		<line class="st10" x1="1001.565" y1="398.174" x2="2153.565" y2="398.174"/>
		<line class="st10" x1="1001.565" y1="470.174" x2="2153.565" y2="470.174"/>
		<line class="st10" x1="1001.565" y1="542.174" x2="2153.565" y2="542.174"/>
		<line class="st10" x1="1001.565" y1="614.174" x2="2153.565" y2="614.174"/>
		<line class="st10" x1="1001.565" y1="686.174" x2="2153.565" y2="686.174"/>
		<line class="st10" x1="1073.565" y1="254.174" x2="1073.565" y2="1190.174"/>
		<line class="st10" x1="1145.565" y1="254.174" x2="1145.565" y2="1190.174"/>
	</g>
</g>
<g id="uis">
	<g>
		<rect class="st9" width="1180.957" height="719.879"/>
		<rect x="232.435" class="st19" width="948.522" height="719.879"/>
		<radialGradient id="SVGID_1_" cx="41.1522" cy="37.5458" r="36.3524" fx="13.3502" fy="14.1248" gradientUnits="userSpaceOnUse">
			<stop  offset="0" style="stop-color:#FFFFFF"/>
			<stop  offset="0.0525" style="stop-color:#FBF8FC"/>
			<stop  offset="0.1307" style="stop-color:#F0E3F3"/>
			<stop  offset="0.2248" style="stop-color:#DFC2E4"/>
			<stop  offset="0.3314" style="stop-color:#C794D0"/>
			<stop  offset="0.4469" style="stop-color:#A85AB7"/>
			<stop  offset="0.5122" style="stop-color:#9536A7"/>
			<stop  offset="1" style="stop-color:#0047D6"/>
		</radialGradient>
		<path class="st4" d="M51.638,30.082H39.435c-0.439,0-0.86,0.174-1.17,0.485l-0.492,0.492l-0.585,0.585v-0.909
			c0-0.392-0.318-0.709-0.709-0.709h-2.115c-0.392,0-0.709,0.318-0.709,0.709v24.403c0,0.353,0.243,0.65,0.571,0.732
			c0.059,0.014,0.121,0.023,0.184,0.023h2.023c0.064,0,0.125-0.008,0.184-0.023c0.328-0.082,0.571-0.379,0.571-0.732V40.175
			c3.119,3.119,6.239,6.239,9.358,9.358c0.15,0.15,0.393,0.149,0.542,0c0.652-0.652,1.304-1.304,1.956-1.956
			c0.149-0.15,0.149-0.392,0-0.542c-0.344-0.344-0.688-0.688-1.032-1.032l1.01-1.01l3.013-3.013c0.333-0.333,0.52-0.785,0.52-1.256
			v-9.724C52.555,30.493,52.145,30.082,51.638,30.082z M49.022,39.39c0,0.388-0.154,0.761-0.429,1.036l-2.077,2.077
			c-0.553,0.553-1.451,0.553-2.005,0l-6.593-6.593l1.926-1.926c0.236-0.236,0.556-0.369,0.89-0.369h6.835
			c0.802,0,1.452,0.65,1.452,1.452V39.39z M59.81,30.025c0.392,0,0.709,0.318,0.709,0.709v13.123c0,0.317-0.126,0.622-0.351,0.846
			l-7.656,7.656l-3.182,3.182c-0.169,0.169-0.384,0.282-0.616,0.328c-0.075,0.015-0.153,0.023-0.231,0.023h-7.359
			c-0.068,0-0.134-0.008-0.197-0.023c-0.387-0.089-0.676-0.436-0.676-0.85v-1.788c0-0.482,0.391-0.873,0.873-0.873h5.896
			c0.315,0,0.616-0.125,0.839-0.347l8.779-8.779c0.223-0.222,0.348-0.524,0.348-0.839V30.735c0-0.392,0.318-0.709,0.709-0.709H59.81
			z M54.9,55.334l5.061-5.061c0.206-0.206,0.558-0.06,0.558,0.231v4.548c0,0.464-0.376,0.84-0.84,0.84h-4.548
			C54.84,55.892,54.694,55.54,54.9,55.334z"/>
		<g>
			<path class="st2" d="M83.94,38.977c1.109,0,1.979,0.109,2.608,0.328c0.629,0.219,1.077,0.595,1.344,1.128s0.4,1.28,0.4,2.24
				s-0.125,1.704-0.376,2.231c-0.25,0.528-0.664,0.899-1.24,1.112c-0.576,0.214-1.35,0.32-2.32,0.32
				c-0.512,0-1.021-0.024-1.528-0.072c-0.507-0.048-0.979-0.112-1.416-0.191c-0.438-0.08-0.811-0.166-1.12-0.257
				c-0.31-0.09-0.522-0.168-0.64-0.231l0.048-1.408c0.661,0,1.349,0,2.064,0c0.714,0,1.418,0,2.112,0
				c0.374-0.011,0.662-0.056,0.864-0.136c0.202-0.08,0.344-0.229,0.424-0.448s0.12-0.525,0.12-0.92c0-0.405-0.04-0.72-0.12-0.944
				c-0.08-0.224-0.222-0.376-0.424-0.456c-0.203-0.08-0.491-0.12-0.864-0.12c-1.035,0-1.92,0.006-2.656,0.017
				c-0.736,0.011-1.238,0.032-1.504,0.063l-0.24-2.096c0.469-0.053,0.912-0.091,1.328-0.112c0.416-0.021,0.869-0.034,1.36-0.04
				C82.655,38.98,83.247,38.977,83.94,38.977z M82.484,39.137v11.04h-3.008v-11.04H82.484z"/>
			<path class="st2" d="M93.604,39.089c0.619,0,1.25,0,1.896,0s1.28,0.014,1.904,0.04s1.197,0.072,1.72,0.136l-0.144,2.145h-4.128
				c-0.235,0-0.416,0.062-0.544,0.184c-0.128,0.123-0.192,0.291-0.192,0.504v5.12c0,0.214,0.064,0.382,0.192,0.504
				c0.128,0.123,0.309,0.184,0.544,0.184h4.128l0.144,2.145c-0.522,0.054-1.096,0.094-1.72,0.12s-1.259,0.042-1.904,0.048
				c-0.646,0.005-1.277,0.008-1.896,0.008c-0.736,0-1.333-0.219-1.792-0.656c-0.458-0.437-0.688-1.008-0.688-1.712v-6.399
				c0-0.715,0.229-1.288,0.688-1.721C92.271,39.305,92.868,39.089,93.604,39.089z M91.412,43.473h6.992v2.032h-6.992V43.473z"/>
			<path class="st2" d="M106.676,38.977c1.109,0,1.979,0.109,2.608,0.328c0.629,0.219,1.077,0.595,1.344,1.128s0.4,1.28,0.4,2.24
				s-0.125,1.704-0.376,2.231c-0.25,0.528-0.664,0.899-1.24,1.112c-0.576,0.214-1.35,0.32-2.32,0.32
				c-0.512,0-1.021-0.024-1.528-0.072c-0.507-0.048-0.979-0.112-1.416-0.191c-0.438-0.08-0.811-0.166-1.12-0.257
				c-0.31-0.09-0.522-0.168-0.64-0.231l0.048-1.408c0.661,0,1.349,0,2.064,0c0.714,0,1.418,0,2.112,0
				c0.374-0.011,0.662-0.056,0.864-0.136c0.202-0.08,0.344-0.229,0.424-0.448s0.12-0.525,0.12-0.92c0-0.405-0.04-0.72-0.12-0.944
				c-0.08-0.224-0.222-0.376-0.424-0.456c-0.203-0.08-0.491-0.12-0.864-0.12c-1.035,0-1.92,0.006-2.656,0.017
				c-0.736,0.011-1.238,0.032-1.504,0.063l-0.24-2.096c0.469-0.053,0.912-0.091,1.328-0.112c0.416-0.021,0.869-0.034,1.36-0.04
				C105.391,38.98,105.983,38.977,106.676,38.977z M105.22,39.137v11.04h-3.008v-11.04H105.22z"/>
			<path class="st2" d="M118.404,38.977c1.109,0,1.979,0.109,2.608,0.328c0.629,0.219,1.077,0.595,1.344,1.128s0.4,1.28,0.4,2.24
				s-0.125,1.704-0.376,2.231c-0.25,0.528-0.664,0.899-1.24,1.112c-0.576,0.214-1.35,0.32-2.32,0.32
				c-0.512,0-1.021-0.024-1.528-0.072c-0.507-0.048-0.979-0.112-1.416-0.191c-0.438-0.08-0.811-0.166-1.12-0.257
				c-0.31-0.09-0.522-0.168-0.64-0.231l0.048-1.408c0.661,0,1.349,0,2.064,0c0.714,0,1.418,0,2.112,0
				c0.374-0.011,0.662-0.056,0.864-0.136c0.202-0.08,0.344-0.229,0.424-0.448s0.12-0.525,0.12-0.92c0-0.405-0.04-0.72-0.12-0.944
				c-0.08-0.224-0.222-0.376-0.424-0.456c-0.203-0.08-0.491-0.12-0.864-0.12c-1.035,0-1.92,0.006-2.656,0.017
				c-0.736,0.011-1.238,0.032-1.504,0.063l-0.24-2.096c0.469-0.053,0.912-0.091,1.328-0.112c0.416-0.021,0.869-0.034,1.36-0.04
				C117.119,38.98,117.711,38.977,118.404,38.977z M116.948,39.137v11.04h-3.008v-11.04H116.948z"/>
			<path class="st2" d="M128.628,39.137v7.952c0,0.214,0.069,0.382,0.208,0.504c0.139,0.123,0.325,0.184,0.56,0.184h3.776
				l0.144,2.257c-0.8,0.096-1.643,0.151-2.528,0.168c-0.886,0.016-1.76,0.023-2.624,0.023c-0.8,0-1.421-0.224-1.864-0.672
				c-0.442-0.448-0.664-1.029-0.664-1.744v-8.672H128.628z"/>
			<path class="st2" d="M140.5,38.913c0.917,0,1.69,0.091,2.32,0.271c0.629,0.182,1.142,0.488,1.536,0.92
				c0.395,0.433,0.677,1.017,0.848,1.752c0.17,0.736,0.256,1.67,0.256,2.801c0,1.119-0.085,2.05-0.256,2.792
				c-0.171,0.741-0.454,1.327-0.848,1.76c-0.395,0.432-0.907,0.738-1.536,0.92c-0.629,0.181-1.402,0.271-2.32,0.271
				c-0.907,0-1.677-0.091-2.312-0.271c-0.635-0.182-1.149-0.488-1.544-0.92c-0.395-0.433-0.678-1.019-0.848-1.76
				c-0.17-0.742-0.256-1.673-0.256-2.792c0-1.131,0.085-2.064,0.256-2.801c0.17-0.735,0.453-1.319,0.848-1.752
				c0.395-0.432,0.909-0.738,1.544-0.92C138.823,39.004,139.594,38.913,140.5,38.913z M140.5,41.201
				c-0.47,0-0.835,0.096-1.096,0.287c-0.261,0.192-0.445,0.539-0.552,1.04c-0.107,0.502-0.16,1.211-0.16,2.129
				c0,0.917,0.053,1.626,0.16,2.128c0.106,0.501,0.291,0.848,0.552,1.04c0.261,0.191,0.626,0.287,1.096,0.287
				c0.469,0,0.834-0.096,1.096-0.287c0.261-0.192,0.442-0.539,0.544-1.04c0.101-0.502,0.152-1.211,0.152-2.128
				c0-0.918-0.051-1.627-0.152-2.129c-0.102-0.501-0.283-0.848-0.544-1.04C141.335,41.297,140.97,41.201,140.5,41.201z"/>
			<path class="st2" d="M152.58,39.009c0.896,0,1.608,0.083,2.136,0.248c0.528,0.165,0.909,0.456,1.144,0.872
				c0.235,0.416,0.352,1.003,0.352,1.76c0,0.79-0.146,1.392-0.44,1.808s-0.771,0.656-1.432,0.721v0.063
				c0.821,0.075,1.395,0.363,1.72,0.864c0.325,0.502,0.488,1.194,0.488,2.08c0,0.758-0.115,1.344-0.344,1.76
				c-0.229,0.416-0.6,0.707-1.112,0.872c-0.512,0.165-1.184,0.248-2.016,0.248c-0.608,0-1.128-0.003-1.56-0.008
				c-0.432-0.006-0.83-0.019-1.192-0.04c-0.363-0.021-0.747-0.048-1.152-0.08l0.224-0.832c0.224,0.011,0.656,0.021,1.296,0.032
				c0.64,0.011,1.387,0.016,2.24,0.016c0.64,0,1.144-0.056,1.512-0.168c0.368-0.112,0.632-0.32,0.792-0.624
				c0.16-0.304,0.24-0.749,0.24-1.336c0-0.629-0.083-1.114-0.248-1.456c-0.166-0.341-0.443-0.581-0.832-0.72
				c-0.39-0.139-0.92-0.213-1.592-0.224h-3.424v-0.816h3.424c0.586-0.011,1.053-0.072,1.4-0.184
				c0.347-0.112,0.597-0.317,0.752-0.616c0.154-0.299,0.232-0.721,0.232-1.265c0-0.564-0.083-0.997-0.248-1.296
				c-0.166-0.298-0.442-0.501-0.832-0.607c-0.389-0.106-0.915-0.16-1.576-0.16c-0.501,0-0.955,0-1.36,0s-0.757,0.003-1.056,0.008
				c-0.299,0.006-0.539,0.019-0.72,0.04l-0.224-0.832c0.352-0.042,0.688-0.072,1.008-0.088c0.32-0.016,0.669-0.026,1.048-0.032
				C151.607,39.012,152.057,39.009,152.58,39.009z M150.197,39.137v11.04h-1.024v-11.04H150.197z"/>
			<path class="st2" d="M164.484,38.993c0.768,0,1.418,0.099,1.952,0.296c0.534,0.197,0.965,0.515,1.296,0.952
				c0.331,0.438,0.57,1.019,0.72,1.743c0.149,0.726,0.224,1.616,0.224,2.673c0,1.056-0.075,1.946-0.224,2.672
				s-0.389,1.307-0.72,1.744c-0.331,0.438-0.763,0.754-1.296,0.951c-0.533,0.197-1.184,0.296-1.952,0.296
				c-0.747,0-1.435-0.013-2.064-0.04c-0.63-0.026-1.222-0.061-1.776-0.104l0.464-0.832c0.469,0.011,0.979,0.021,1.528,0.032
				s1.165,0.016,1.848,0.016c0.768,0,1.378-0.146,1.832-0.439c0.453-0.294,0.778-0.787,0.976-1.48
				c0.197-0.693,0.296-1.632,0.296-2.815c0-1.185-0.099-2.123-0.296-2.816c-0.198-0.693-0.523-1.189-0.976-1.488
				c-0.454-0.298-1.064-0.448-1.832-0.448c-0.672,0-1.28,0.006-1.824,0.017s-1.067,0.026-1.568,0.048l-0.448-0.832
				c0.555-0.042,1.149-0.077,1.784-0.104C163.063,39.006,163.748,38.993,164.484,38.993z M161.684,39.137v11.04h-1.04v-11.04
				H161.684z"/>
		</g>
		<g class="st21">
			<path d="M287.089,61.505h-24.526c-3.721,0-6.737-3.016-6.737-6.737V30.241c0-3.721,3.016-6.737,6.737-6.737h24.526
				c3.721,0,6.737,3.016,6.737,6.737v24.526C293.826,58.488,290.81,61.505,287.089,61.505z"/>
			<g>
				<rect x="265.435" y="33.63" class="st2" width="18.913" height="2.348"/>
				<rect x="265.435" y="41.331" class="st2" width="18.913" height="2.348"/>
				<rect x="265.435" y="49.031" class="st2" width="18.913" height="2.348"/>
			</g>
		</g>
		<rect x="106.794" y="267.299" class="st22" width="42.26" height="42.26"/>
		<g>
			<g>
				<g>
					<path class="st23" d="M212.806,167.566H16.763c-2.918,0-5.283-2.365-5.283-5.283v-21.522c0-2.917,2.365-5.283,5.283-5.283
						h196.043c2.918,0,5.283,2.365,5.283,5.283v21.522C218.089,165.201,215.724,167.566,212.806,167.566z"/>
					<g class="st24">
						<g>
							<path class="st2" d="M50.122,144.813c0,0,0-0.049-0.049-0.049c0-0.049,0-0.049-0.049-0.049c0-0.049-0.049-0.049-0.049-0.049
								l-0.049-0.049c0,0-0.049,0-0.049-0.049l-0.049-0.049l-4.579-2.631c-0.146-0.097-0.39-0.097-0.536,0l-4.579,2.631
								c0,0-0.049,0-0.049,0.049l-0.049,0.049l-0.049,0.049l-0.049,0.049c0,0-0.049,0.049-0.049,0.097v0.049
								c0,0.049,0,0.097,0,0.146v4.92l-3.507,1.997v-9.548c0-0.049,0-0.097,0-0.146c0,0,0-0.049-0.049-0.049
								c0-0.049,0-0.049-0.049-0.049c0-0.049-0.049-0.049-0.049-0.049l-0.049-0.049c0.146-0.049,0.097-0.049,0.097-0.049
								l-0.049-0.049l-4.579-2.631c-0.146-0.097-0.341-0.097-0.536,0l-4.53,2.631l-0.049,0.049l-0.097,0.049l-0.049,0.049l0,0.049
								c0,0-0.049,0.049-0.049,0.097v0.049c0,0.049,0,0.097,0,0.146v15.637c0,0.097,0.049,0.195,0.097,0.244
								c0.049,0.097,0.097,0.146,0.195,0.195l9.109,5.261c0,0,0.049,0,0.097,0.049h0.049c0.049,0,0.097,0,0.146,0s0.097,0,0.146,0
								h0.049c0.049,0,0.049,0,0.097-0.049l9.109-5.261c0.146-0.097,0.244-0.292,0.244-0.438v-4.969l4.287-2.484
								c0.097-0.049,0.146-0.097,0.195-0.195s0.049-0.195,0.049-0.244v-5.212C50.171,144.91,50.171,144.861,50.122,144.813z
								 M45.056,147.005l-3.507-1.997l3.507-2.046l3.507,1.997L45.056,147.005z M31.416,140.38l3.507,1.997l-3.507,2.046
								l-3.507-2.046L31.416,140.38z M35.411,143.302v9.207l-2.143,1.218l-1.364,0.779V145.3L35.411,143.302z M35.411,162.349
								l-8.038-4.676v-14.37l3.507,2.046v10.084v0.049v0.049c0,0,0,0.049,0.049,0.049c0,0.049,0,0.049,0.049,0.049
								c0,0,0,0.049,0.049,0.049l0.049,0.049l0.049,0.049l4.335,2.484v4.092H35.411z M35.946,157.381l-3.507-1.997l8.038-4.628
								l3.507,1.997L35.946,157.381z M44.569,157.673l-8.038,4.628v-4.043l8.038-4.53V157.673z M44.569,151.876l-3.507-1.997v-3.994
								l3.507,1.997V151.876z M49.099,149.879l-3.507,1.997v-3.994l3.507-1.997V149.879z"/>
						</g>
						<path class="st2" d="M113.174,152.826H65.135c-0.89,0-1.611-0.721-1.611-1.611v-0.699c0-0.89,0.721-1.611,1.611-1.611h48.038
							c0.89,0,1.611,0.721,1.611,1.611v0.699C114.785,152.105,114.063,152.826,113.174,152.826z"/>
					</g>
				</g>
				<g class="st25">
					<g>
						<g>
							<defs>
								
									<rect id="SVGID_00000019671729364356961640000001326585670727119539_" x="24.917" y="181.394" width="24.78" height="24.78"/>
							</defs>
							<clipPath id="SVGID_00000004512992001558585120000007902829071277375659_">
								<use xlink:href="#SVGID_00000019671729364356961640000001326585670727119539_"  style="overflow:visible;"/>
							</clipPath>
							<g style="clip-path:url(#SVGID_00000004512992001558585120000007902829071277375659_);">
								<path class="st2" d="M37.298,206.174c-0.32,0-0.679-0.04-0.959-0.28l-3.038-1.799c-0.44-0.28-0.24-0.32-0.04-0.4
									c0.6-0.16,0.719-0.28,1.359-0.6c0.04-0.04,0.16-0.04,0.24,0.04l2.318,1.399c0.04,0.04,0.16,0.04,0.28,0l9.073-5.236
									c0.04-0.04,0.16-0.16,0.16-0.24v-10.512c0-0.12-0.04-0.16-0.16-0.24l-9.113-5.156c-0.04-0.04-0.16-0.04-0.28,0l-9.033,5.236
									c-0.04,0.04-0.16,0.16-0.16,0.24v10.432c0,0.12,0.04,0.16,0.16,0.24l2.478,1.399c1.359,0.679,2.198-0.12,2.198-0.959
									v-10.232c0-0.16,0.12-0.28,0.28-0.28h1.159c0.16,0,0.28,0.12,0.28,0.28v10.312c0,1.799-0.959,2.798-2.638,2.798
									c-0.56,0-0.879,0-2.078-0.56l-2.358-1.319c-0.56-0.32-0.959-0.959-0.959-1.679v-10.512c0-0.679,0.32-1.279,0.959-1.679
									l8.993-5.236c0.56-0.32,1.359-0.32,1.919,0l9.073,5.276c0.56,0.32,0.959,0.959,0.959,1.679v10.432
									c0,0.679-0.32,1.279-0.959,1.679l-9.033,5.196C37.977,206.134,37.657,206.174,37.298,206.174z M44.612,195.862
									c0-1.958-1.279-2.478-4.117-2.878c-2.838-0.4-3.078-0.56-3.078-1.239c0-0.56,0.24-1.279,2.318-1.279
									c1.839,0,2.518,0.4,2.798,1.679c0.04,0.12,0.12,0.16,0.28,0.16h1.159c0.04,0,0.16-0.04,0.16-0.04s0.04-0.12,0.04-0.16
									c-0.16-2.198-1.639-3.158-4.476-3.158c-2.598,0-4.157,1.079-4.157,2.918c0,1.958,1.559,2.518,3.997,2.758
									c2.958,0.28,3.197,0.719,3.197,1.279c0,0.999-0.799,1.399-2.678,1.399c-2.398,0-2.918-0.6-3.078-1.799
									c-0.04-0.12-0.12-0.24-0.28-0.24h-1.079c-0.16,0-0.28,0.12-0.28,0.28c0,1.519,0.799,3.357,4.756,3.357
									C42.973,198.98,44.612,197.861,44.612,195.862z"/>
							</g>
						</g>
					</g>
					<path class="st2" d="M138.778,195.087H65.485c-1.083,0-1.961-0.878-1.961-1.961v0c0-1.083,0.878-1.961,1.961-1.961h73.294
						c1.083,0,1.961,0.878,1.961,1.961v0C140.739,194.209,139.861,195.087,138.778,195.087z"/>
				</g>
				<g class="st25">
					<path class="st2" d="M118.952,236.27H65.247c-0.939,0-1.701-0.761-1.701-1.701v-0.52c0-0.939,0.761-1.701,1.701-1.701h53.704
						c0.939,0,1.701,0.761,1.701,1.701v0.52C120.652,235.509,119.891,236.27,118.952,236.27z"/>
					<g>
						<path class="st27" d="M49.042,241.256c-1.339-0.037-2.377,0.1-3.248,0.466c-0.251,0.101-0.653,0.101-0.686,0.416
							c0.134,0.132,0.15,0.349,0.268,0.533c0.201,0.333,0.553,0.782,0.87,1.014l1.071,0.766c0.653,0.399,1.389,0.632,2.025,1.031
							c0.368,0.233,0.737,0.532,1.105,0.782c0.188,0.133,0.301,0.35,0.536,0.433v-0.05c-0.117-0.149-0.151-0.365-0.268-0.533
							l-0.503-0.482c-0.485-0.649-1.088-1.215-1.741-1.68c-0.536-0.366-1.707-0.865-1.925-1.48l-0.033-0.037
							c0.368-0.037,0.803-0.167,1.155-0.267c0.57-0.149,1.088-0.116,1.673-0.266l0.804-0.233v-0.149
							c-0.301-0.299-0.519-0.699-0.837-0.981c-0.854-0.732-1.792-1.448-2.763-2.046c-0.519-0.333-1.189-0.549-1.741-0.832
							c-0.201-0.1-0.536-0.15-0.653-0.316c-0.302-0.365-0.469-0.848-0.687-1.281l-1.373-2.895c-0.301-0.649-0.486-1.298-0.854-1.897
							c-1.724-2.828-3.6-4.542-6.479-6.222c-0.619-0.349-1.356-0.5-2.139-0.682l-1.255-0.067c-0.268-0.116-0.536-0.433-0.77-0.582
							c-0.954-0.599-3.415-1.897-4.119-0.186c-0.452,1.081,0.67,2.146,1.051,2.695c0.285,0.383,0.653,0.815,0.854,1.248
							c0.113,0.283,0.15,0.582,0.268,0.882c0.268,0.732,0.519,1.547,0.871,2.23c0.188,0.349,0.385,0.716,0.619,1.032
							c0.134,0.186,0.368,0.266,0.418,0.566c-0.234,0.333-0.251,0.832-0.385,1.248c-0.603,1.88-0.368,4.209,0.485,5.593
							c0.268,0.416,0.9,1.331,1.758,0.981c0.753-0.299,0.585-1.248,0.803-2.08c0.051-0.199,0.017-0.333,0.117-0.466v0.037
							l0.687,1.381c0.519,0.815,1.423,1.664,2.176,2.23c0.401,0.299,0.72,0.815,1.222,0.998v-0.05h-0.033
							c-0.101-0.149-0.251-0.216-0.385-0.333c-0.301-0.299-0.636-0.666-0.87-0.998c-0.703-0.931-1.322-1.963-1.875-3.028
							c-0.268-0.516-0.503-1.081-0.72-1.597c-0.101-0.2-0.101-0.5-0.268-0.599c-0.251,0.365-0.619,0.682-0.804,1.131
							c-0.318,0.715-0.351,1.597-0.468,2.512c-0.068,0.017-0.038,0-0.068,0.037c-0.535-0.133-0.72-0.682-0.92-1.148
							c-0.502-1.181-0.586-3.078-0.151-4.442c0.117-0.349,0.62-1.448,0.419-1.78c-0.101-0.316-0.435-0.499-0.62-0.749
							c-0.218-0.316-0.451-0.715-0.602-1.065c-0.401-0.932-0.602-1.963-1.038-2.895c-0.201-0.433-0.553-0.882-0.837-1.281
							c-0.318-0.449-0.669-0.766-0.92-1.298c-0.084-0.186-0.201-0.483-0.067-0.682c0.033-0.133,0.101-0.186,0.234-0.216
							c0.218-0.186,0.837,0.05,1.055,0.149c0.619,0.25,1.138,0.483,1.657,0.832c0.235,0.166,0.486,0.483,0.787,0.566h0.352
							c0.536,0.116,1.138,0.037,1.64,0.186c0.887,0.283,1.691,0.699,2.411,1.148c2.193,1.381,4.001,3.344,5.223,5.69
							c0.201,0.383,0.284,0.732,0.469,1.131c0.352,0.815,0.787,1.647,1.138,2.446c0.352,0.782,0.687,1.581,1.189,2.23
							c0.251,0.349,1.255,0.532,1.707,0.715c0.335,0.149,0.854,0.283,1.156,0.466c0.569,0.349,1.138,0.749,1.673,1.131
							c0.268,0.199,1.105,0.615,1.155,0.947L49.042,241.256z M31.97,226.798c-0.231-0.002-0.462,0.026-0.686,0.083v0.037h0.033
							c0.134,0.266,0.368,0.449,0.536,0.682l0.385,0.799l0.033-0.037c0.235-0.166,0.352-0.433,0.352-0.832
							c-0.101-0.116-0.117-0.233-0.201-0.349C32.322,227.015,32.104,226.932,31.97,226.798L31.97,226.798z"/>
					</g>
				</g>
			</g>
			<g class="st28">
				<path class="st2" d="M16.992,98.268c0.533,0.011,1.085,0.038,1.656,0.08c0.57,0.043,1.139,0.128,1.704,0.256L20.24,99.74
					c-0.458-0.021-0.973-0.037-1.544-0.048s-1.123-0.017-1.656-0.017c-0.374,0-0.693,0.011-0.96,0.032
					c-0.267,0.021-0.486,0.08-0.656,0.176c-0.17,0.097-0.296,0.251-0.376,0.464c-0.08,0.214-0.12,0.507-0.12,0.88
					c0,0.566,0.106,0.963,0.32,1.192s0.56,0.402,1.04,0.521l2.224,0.592c0.853,0.213,1.44,0.573,1.76,1.08s0.48,1.187,0.48,2.04
					c0,0.64-0.072,1.157-0.216,1.552s-0.368,0.698-0.672,0.912c-0.304,0.213-0.696,0.362-1.176,0.448
					c-0.48,0.085-1.051,0.128-1.712,0.128c-0.363,0-0.843-0.017-1.44-0.049c-0.598-0.031-1.286-0.122-2.064-0.271l0.112-1.168
					c0.629,0.021,1.144,0.04,1.544,0.056c0.4,0.017,0.744,0.024,1.032,0.024c0.288,0,0.576,0,0.864,0c0.533,0,0.955-0.04,1.264-0.12
					c0.309-0.08,0.528-0.24,0.656-0.48c0.128-0.239,0.192-0.589,0.192-1.048c0-0.395-0.045-0.701-0.136-0.92
					c-0.091-0.219-0.235-0.387-0.432-0.504s-0.451-0.213-0.76-0.288L15.52,104.3c-0.811-0.213-1.379-0.57-1.704-1.072
					c-0.325-0.501-0.488-1.173-0.488-2.016c0-0.64,0.072-1.157,0.216-1.552s0.365-0.69,0.664-0.888
					c0.298-0.197,0.677-0.331,1.136-0.4S16.352,98.268,16.992,98.268z"/>
				<path class="st2" d="M27.248,101.692v1.151h-5.392v-1.071l1.536-0.08H27.248z M24.816,99.404v7.872
					c0,0.362,0.077,0.621,0.232,0.775c0.155,0.155,0.419,0.232,0.792,0.232h1.152l0.176,1.136c-0.182,0.054-0.387,0.096-0.616,0.128
					c-0.229,0.032-0.459,0.056-0.688,0.072c-0.229,0.016-0.414,0.023-0.552,0.023c-0.662,0-1.168-0.181-1.52-0.544
					c-0.352-0.362-0.528-0.885-0.528-1.567v-8.128H24.816z"/>
				<path class="st2" d="M34.64,104.684l-0.016,1.089l-3.68,0.016c-0.363,0.011-0.616,0.104-0.76,0.28
					c-0.144,0.176-0.216,0.418-0.216,0.728v0.48c0,0.384,0.093,0.664,0.28,0.84c0.187,0.176,0.482,0.264,0.888,0.264
					c0.299,0,0.632-0.056,1-0.168c0.368-0.112,0.739-0.282,1.112-0.512c0.373-0.229,0.709-0.521,1.008-0.872v1.008
					c-0.107,0.149-0.267,0.328-0.48,0.536s-0.472,0.408-0.776,0.6c-0.304,0.192-0.64,0.353-1.008,0.48
					c-0.368,0.128-0.771,0.191-1.208,0.191c-0.469,0-0.883-0.082-1.24-0.247c-0.357-0.166-0.638-0.411-0.84-0.736
					s-0.304-0.723-0.304-1.192v-0.848c0-0.608,0.194-1.083,0.584-1.424c0.389-0.342,0.931-0.513,1.624-0.513H34.64z M32.592,101.5
					c0.597,0,1.101,0.077,1.512,0.232c0.41,0.154,0.72,0.418,0.928,0.792c0.208,0.373,0.312,0.885,0.312,1.535v5.44h-1.216
					l-0.24-1.696l-0.096-0.191v-3.553c-0.011-0.458-0.12-0.789-0.328-0.991c-0.208-0.203-0.611-0.305-1.208-0.305
					c-0.406,0-0.915,0.021-1.528,0.064c-0.614,0.043-1.219,0.085-1.816,0.128l-0.144-1.104c0.362-0.063,0.765-0.122,1.208-0.176
					c0.442-0.053,0.893-0.096,1.352-0.128S32.208,101.5,32.592,101.5z"/>
				<path class="st2" d="M41.072,101.5c0.246,0,0.515,0.011,0.808,0.032s0.597,0.059,0.912,0.111
					c0.314,0.054,0.605,0.134,0.872,0.24l-0.192,0.992c-0.374-0.032-0.755-0.054-1.144-0.064c-0.39-0.01-0.723-0.016-1-0.016
					c-0.598,0-1.07,0.08-1.416,0.24c-0.347,0.16-0.595,0.442-0.744,0.848s-0.224,0.971-0.224,1.696s0.075,1.296,0.224,1.712
					s0.397,0.704,0.744,0.864c0.346,0.16,0.818,0.24,1.416,0.24c0.16,0,0.368-0.006,0.624-0.017
					c0.256-0.011,0.533-0.026,0.832-0.048c0.298-0.021,0.586-0.054,0.864-0.096l0.144,1.023c-0.395,0.149-0.832,0.259-1.312,0.328
					s-0.955,0.104-1.424,0.104c-0.917,0-1.651-0.134-2.2-0.4s-0.947-0.698-1.192-1.296c-0.246-0.598-0.368-1.402-0.368-2.416
					c0-1.003,0.125-1.803,0.376-2.4c0.25-0.597,0.65-1.026,1.2-1.288C39.422,101.631,40.155,101.5,41.072,101.5z"/>
				<path class="st2" d="M47.104,98.3l0.016,4.912c0,0.342-0.014,0.659-0.04,0.952c-0.027,0.293-0.072,0.6-0.136,0.92
					c0.064,0.299,0.106,0.603,0.128,0.912c0.021,0.31,0.032,0.603,0.032,0.88v2.624h-1.536V98.3H47.104z M48.4,104.556v1.088h-1.824
					v-1.088H48.4z M52.176,101.692l-2.384,2.832c-0.075,0.106-0.17,0.216-0.288,0.327c-0.118,0.112-0.214,0.195-0.288,0.248v0.032
					c0.074,0.054,0.17,0.146,0.288,0.28c0.117,0.134,0.213,0.264,0.288,0.392l2.64,3.696H50.64l-3.008-4.464l2.752-3.344H52.176z"/>
			</g>
		</g>
		<g>
			<g>
				<g class="st25">
					<g class="st24">
						<path class="st2" d="M129.109,341.043H65.372c-1.021,0-1.848-0.827-1.848-1.848v-0.226c0-1.021,0.827-1.848,1.848-1.848
							h63.737c1.021,0,1.848,0.827,1.848,1.848v0.226C130.957,340.216,130.129,341.043,129.109,341.043z"/>
						<g>
							<g>
								<path class="st2" d="M48.138,335.735c-1.063-1.142-2.521-1.93-4.057-2.206c-0.867-1.379-2.127-2.403-3.584-2.915
									c-0.67-0.276-1.457-0.394-2.285-0.394c-3.742,0-6.775,2.915-7.011,6.578c-2.757,0.354-4.924,2.718-4.924,5.554
									c0,3.112,2.442,5.593,5.593,5.593h10.95c4.018,0,7.326-3.269,7.326-7.287C50.107,338.846,49.398,337.074,48.138,335.735z
									 M42.781,346.173h-10.95c-2.127,0-3.821-1.694-3.821-3.821c0-2.127,1.694-3.821,3.821-3.821h0.197
									c0.473,0,0.906-0.394,0.906-0.906v-0.394c0-2.875,2.363-5.239,5.239-5.239c0.63,0,1.182,0.079,1.694,0.276
									c1.221,0.433,2.245,1.3,2.875,2.481c0.158,0.276,0.394,0.433,0.67,0.473c1.3,0.118,2.521,0.748,3.427,1.694
									c0.945,1.024,1.497,2.363,1.497,3.742C48.335,343.73,45.814,346.173,42.781,346.173z"/>
								<path class="st2" d="M40.024,338.846h-1.536l1.891-2.442c0.315-0.394,0.236-0.945-0.158-1.26
									c-0.394-0.315-0.945-0.236-1.26,0.158l-2.836,3.663c-0.236,0.315-0.276,0.709-0.118,1.064
									c0.158,0.354,0.512,0.551,0.906,0.551h1.457l-2.009,2.403c-0.315,0.394-0.276,0.945,0.118,1.26
									c0.158,0.158,0.354,0.197,0.551,0.197c0.236,0,0.512-0.118,0.67-0.315l3.072-3.663c0.236-0.315,0.315-0.709,0.158-1.103
									C40.772,339.083,40.417,338.846,40.024,338.846z"/>
							</g>
						</g>
					</g>
				</g>
				<g class="st25">
					<path class="st2" d="M107.025,383.304H65.021c-0.827,0-1.497-0.67-1.497-1.497v-0.928c0-0.827,0.67-1.497,1.497-1.497h42.004
						c0.827,0,1.497,0.67,1.497,1.497v0.928C108.522,382.634,107.852,383.304,107.025,383.304z"/>
					<g>
						<path class="st2" d="M45.162,378.292c-0.28-0.04-0.52-0.16-0.799-0.24c0.04-0.16,0.04-0.32,0.12-0.56
							c0.56-2.878,0.16-5.156-1.119-5.955c-1.279-0.719-3.357,0.04-5.436,1.839c-0.16,0.16-0.44,0.32-0.6,0.56
							c-0.12-0.12-0.28-0.24-0.4-0.4c-2.198-1.958-4.357-2.758-5.715-1.998c-1.279,0.719-1.679,2.918-1.119,5.596
							c0.04,0.28,0.12,0.56,0.16,0.799c-0.28,0.04-0.6,0.16-0.879,0.28c-2.598,0.919-4.437,2.398-4.437,3.797
							c0,1.519,1.958,3.038,4.636,3.917c0.24,0.04,0.44,0.16,0.679,0.16c-0.04,0.28-0.16,0.56-0.16,0.879
							c-0.52,2.638-0.12,4.756,1.159,5.476c1.279,0.799,3.517,0,5.596-1.918c0.16-0.16,0.32-0.28,0.52-0.44
							c0.16,0.16,0.44,0.4,0.679,0.56c1.998,1.799,4.077,2.518,5.396,1.799c1.279-0.799,1.719-3.038,1.159-5.835
							c-0.04-0.16-0.04-0.44-0.16-0.679c0.16-0.04,0.28-0.04,0.44-0.16c2.798-0.839,4.836-2.358,4.836-3.877
							C49.678,380.65,47.759,379.211,45.162,378.292z M38.607,374.215c1.799-1.559,3.477-2.118,4.277-1.719
							c0.799,0.44,1.119,2.358,0.6,4.876c-0.04,0.16-0.04,0.28-0.12,0.52c-1.079-0.24-2.118-0.44-3.237-0.52
							c-0.6-0.879-1.279-1.799-1.998-2.518C38.287,374.535,38.447,374.375,38.607,374.215z M33.051,384.567
							c0.24,0.44,0.52,0.839,0.799,1.239c-0.799-0.04-1.519-0.16-2.238-0.32c0.16-0.679,0.44-1.399,0.799-2.118
							C32.571,383.728,32.851,384.207,33.051,384.567z M31.612,378.812c0.679-0.16,1.399-0.28,2.198-0.4
							c-0.28,0.4-0.52,0.799-0.719,1.239c-0.2,0.44-0.44,0.799-0.679,1.279C32.052,380.17,31.852,379.491,31.612,378.812z
							 M32.891,382.129c0.28-0.679,0.679-1.279,1.079-1.958c0.4-0.679,0.799-1.279,1.159-1.918c0.719-0.04,1.439-0.04,2.198-0.04
							c0.719,0,1.519,0.04,2.198,0.04c0.44,0.6,0.799,1.239,1.159,1.839c0.4,0.6,0.719,1.279,1.079,1.958
							c-0.28,0.679-0.679,1.279-1.079,1.958c-0.4,0.679-0.799,1.279-1.159,1.918c-0.719,0.04-1.439,0.04-2.238,0.04
							s-1.519-0.04-2.198-0.04c-0.44-0.6-0.799-1.239-1.159-1.918C33.571,383.328,33.251,382.808,32.891,382.129z M41.604,384.567
							c0.24-0.44,0.44-0.839,0.679-1.279c0.28,0.679,0.56,1.399,0.799,2.118c-0.719,0.16-1.519,0.28-2.318,0.4
							C41.085,385.406,41.365,384.967,41.604,384.567z M42.324,380.89c-0.24-0.44-0.44-0.839-0.679-1.279
							c-0.24-0.44-0.52-0.799-0.719-1.159c0.799,0.12,1.519,0.24,2.198,0.4C42.883,379.531,42.604,380.21,42.324,380.89z
							 M37.328,375.494c0.52,0.56,0.959,1.119,1.399,1.719c-0.959-0.04-1.918-0.04-2.878,0
							C36.368,376.573,36.888,376.014,37.328,375.494z M31.732,372.536c0.799-0.44,2.638,0.16,4.476,1.918
							c0.12,0.12,0.24,0.24,0.4,0.32c-0.719,0.799-1.399,1.679-2.078,2.518c-1.079,0.12-2.198,0.28-3.237,0.52
							c-0.04-0.24-0.12-0.52-0.16-0.719C30.693,374.735,30.973,372.976,31.732,372.536z M30.613,385.246
							c-0.16-0.04-0.4-0.12-0.6-0.16c-1.079-0.28-2.198-0.839-3.078-1.519c-0.56-0.4-0.839-0.879-0.959-1.439
							c0-0.879,1.559-1.998,3.757-2.798c0.28-0.12,0.56-0.16,0.839-0.28c0.32,1.079,0.719,2.078,1.159,3.078
							C31.332,383.128,30.893,384.127,30.613,385.246z M36.169,389.923c-0.799,0.719-1.719,1.279-2.758,1.679
							c-0.56,0.28-1.159,0.28-1.679,0.04c-0.799-0.44-1.079-2.118-0.679-4.437c0.04-0.28,0.12-0.56,0.16-0.799
							c1.079,0.24,2.198,0.4,3.237,0.44c0.6,0.879,1.359,1.799,2.078,2.598C36.488,389.683,36.328,389.803,36.169,389.923z
							 M37.368,388.804c-0.52-0.56-0.959-1.119-1.439-1.719c0.44,0,0.879,0.04,1.399,0.04c0.52,0,0.999,0,1.439-0.04
							C38.327,387.605,37.887,388.164,37.368,388.804z M43.683,390.203c-0.04,0.56-0.32,1.159-0.799,1.519
							c-0.799,0.44-2.398-0.12-4.157-1.679c-0.16-0.16-0.4-0.32-0.6-0.56c0.719-0.799,1.399-1.679,1.998-2.598
							c1.119-0.04,2.198-0.28,3.237-0.52c0.04,0.16,0.04,0.4,0.12,0.56C43.763,388.044,43.763,389.163,43.683,390.203z
							 M44.562,385.047c-0.12,0.04-0.28,0.04-0.44,0.12c-0.32-1.079-0.799-2.078-1.239-3.078c0.44-0.959,0.839-1.998,1.159-3.038
							c0.28,0.04,0.52,0.16,0.719,0.24c2.238,0.799,3.797,1.918,3.797,2.798C48.599,383.008,46.96,384.247,44.562,385.047z
							 M37.328,384.287c1.239,0,2.198-0.999,2.198-2.198c0-1.199-0.999-2.198-2.198-2.198c-1.159,0-2.198,0.999-2.198,2.198
							C35.129,383.288,36.089,384.287,37.328,384.287z"/>
					</g>
				</g>
				<g class="st25">
					<path class="st2" d="M118.952,424.488H65.247c-0.939,0-1.701-0.761-1.701-1.701v-0.52c0-0.939,0.761-1.701,1.701-1.701h53.704
						c0.939,0,1.701,0.761,1.701,1.701v0.52C120.652,423.727,119.891,424.488,118.952,424.488z"/>
					<g>
						<g>
							<path class="st2" d="M45.82,426.982l-0.115-0.076c-0.306-0.191-0.65-0.344-1.452-0.573h-0.038
								c-0.267-0.038-0.573-0.153-0.688-0.229l-0.038-0.038c-0.153-0.153-0.267-0.42-0.267-0.726c0-0.267,0.115-0.535,0.267-0.726
								l1.49-1.49c2.636-2.636,2.636-6.801,0-9.475c-1.757-1.796-4.203-2.751-6.915-2.751c-3.018,0-6.075,1.299-8.405,3.591
								c-2.14,2.178-3.286,5.005-3.286,8.1s1.184,5.96,3.362,8.061c2.178,2.178,5.043,3.362,8.1,3.362
								c3.018,0,5.884-1.223,8.062-3.4c0.458-0.458,0.726-1.146,0.726-1.796C46.622,428.09,46.317,427.402,45.82,426.982z
								 M44.674,429.389c-1.834,1.872-4.279,2.904-6.839,2.904c-2.636,0-5.005-0.993-6.877-2.865
								c-1.834-1.796-2.865-4.203-2.865-6.839s0.993-5.005,2.827-6.877c2.025-1.987,4.623-3.133,7.221-3.133
								c2.254,0,4.241,0.764,5.693,2.254c1.987,2.025,1.987,5.081,0,7.068l-1.528,1.528c-0.458,0.497-0.726,1.184-0.726,1.91
								c0,0.764,0.267,1.414,0.726,1.91c0.458,0.497,1.375,0.726,1.605,0.764c0.535,0.115,0.726,0.229,0.879,0.306
								c0.076,0.115,0.153,0.306,0.153,0.497C44.903,429.007,44.788,429.274,44.674,429.389z"/>
							<path class="st2" d="M38.523,424.231c-0.535,0-0.955,0.42-0.955,0.955s0.42,0.955,0.955,0.955
								c0.535,0,0.955-0.42,0.955-0.955S39.057,424.231,38.523,424.231z"/>
							<path class="st2" d="M42.687,420.639c0-1.261-1.032-2.331-2.331-2.331s-2.331,1.032-2.331,2.331
								c0,1.261,1.032,2.331,2.331,2.331S42.687,421.938,42.687,420.639z M40.356,421.251c-0.344,0-0.611-0.267-0.611-0.611
								c0-0.344,0.267-0.611,0.611-0.611c0.344,0,0.611,0.267,0.611,0.611C40.968,420.983,40.7,421.251,40.356,421.251z"/>
							<path class="st2" d="M38.714,416.59c0-1.528-1.261-2.789-2.789-2.789s-2.789,1.261-2.789,2.789
								c0,1.528,1.261,2.789,2.789,2.789S38.714,418.156,38.714,416.59z M35.924,417.698c-0.611,0-1.07-0.497-1.07-1.07
								c0-0.611,0.497-1.07,1.07-1.07s1.07,0.497,1.07,1.07S36.536,417.698,35.924,417.698z"/>
						</g>
					</g>
				</g>
			</g>
			<g class="st28">
				<path class="st2" d="M18.32,286.678c0.139,0,0.261,0.04,0.368,0.12c0.106,0.08,0.181,0.184,0.224,0.312l3.488,10.608h-1.664
					l-2.752-8.88c-0.042-0.149-0.085-0.307-0.128-0.472c-0.043-0.166-0.085-0.317-0.128-0.456H17.28
					c-0.042,0.139-0.085,0.29-0.128,0.456c-0.042,0.165-0.091,0.322-0.144,0.472l-2.752,8.88h-1.648l3.488-10.608
					c0.042-0.128,0.117-0.231,0.224-0.312s0.229-0.12,0.368-0.12H18.32z M20.304,293.029v1.328h-5.632v-1.328H20.304z"/>
				<path class="st2" d="M24.992,289.91l0.16,1.584l0.112,0.208v5.023l-0.064,0.192c0.032,0.299,0.053,0.592,0.064,0.88
					s0.011,0.592,0,0.912v2.191h-1.536V289.91H24.992z M28.32,289.718c0.96,0,1.648,0.352,2.064,1.056s0.624,1.733,0.624,3.088
					c0,1.014-0.107,1.816-0.32,2.408c-0.214,0.592-0.536,1.014-0.968,1.265c-0.432,0.25-0.984,0.376-1.656,0.376
					c-0.523,0-1.032-0.072-1.528-0.217c-0.496-0.144-0.973-0.365-1.432-0.664l0.096-0.863c0.469,0.139,0.888,0.251,1.256,0.336
					c0.368,0.085,0.76,0.128,1.176,0.128c0.437,0,0.784-0.074,1.04-0.224s0.445-0.427,0.568-0.832s0.184-0.977,0.184-1.713
					c0-0.725-0.056-1.293-0.168-1.703c-0.112-0.411-0.288-0.704-0.528-0.881c-0.24-0.176-0.558-0.264-0.952-0.264
					c-0.406,0-0.806,0.094-1.2,0.28s-0.848,0.478-1.36,0.872l-0.16-0.96c0.267-0.299,0.579-0.561,0.936-0.784
					s0.739-0.397,1.144-0.521C27.541,289.779,27.936,289.718,28.32,289.718z"/>
				<path class="st2" d="M34.336,289.91l0.16,1.584l0.112,0.208v5.023l-0.064,0.192c0.032,0.299,0.053,0.592,0.064,0.88
					s0.011,0.592,0,0.912v2.191h-1.536V289.91H34.336z M37.664,289.718c0.96,0,1.648,0.352,2.064,1.056s0.624,1.733,0.624,3.088
					c0,1.014-0.107,1.816-0.32,2.408c-0.214,0.592-0.536,1.014-0.968,1.265c-0.432,0.25-0.984,0.376-1.656,0.376
					c-0.523,0-1.032-0.072-1.528-0.217c-0.496-0.144-0.973-0.365-1.432-0.664l0.096-0.863c0.469,0.139,0.888,0.251,1.256,0.336
					c0.368,0.085,0.76,0.128,1.176,0.128c0.437,0,0.784-0.074,1.04-0.224s0.445-0.427,0.568-0.832s0.184-0.977,0.184-1.713
					c0-0.725-0.056-1.293-0.168-1.703c-0.112-0.411-0.288-0.704-0.528-0.881c-0.24-0.176-0.558-0.264-0.952-0.264
					c-0.406,0-0.806,0.094-1.2,0.28s-0.848,0.478-1.36,0.872l-0.16-0.96c0.267-0.299,0.579-0.561,0.936-0.784
					s0.739-0.397,1.144-0.521C36.885,289.779,37.28,289.718,37.664,289.718z"/>
				<path class="st2" d="M45.088,289.718c0.341,0,0.709,0.011,1.104,0.032c0.395,0.021,0.787,0.048,1.176,0.08
					c0.389,0.031,0.744,0.074,1.064,0.128l-0.112,1.088c-0.501-0.021-1-0.04-1.496-0.056c-0.496-0.017-0.989-0.024-1.48-0.024
					c-0.469-0.011-0.837,0-1.104,0.032c-0.267,0.031-0.458,0.111-0.576,0.239c-0.118,0.129-0.176,0.348-0.176,0.656
					c0,0.374,0.093,0.619,0.28,0.736s0.467,0.219,0.84,0.304l2.224,0.512c0.629,0.16,1.093,0.396,1.392,0.704
					c0.299,0.31,0.448,0.801,0.448,1.473c0,0.64-0.12,1.122-0.36,1.447c-0.24,0.326-0.611,0.545-1.112,0.656
					c-0.501,0.112-1.136,0.168-1.904,0.168c-0.288,0-0.718-0.011-1.288-0.032c-0.571-0.021-1.197-0.09-1.88-0.208l0.112-1.071
					c0.245,0.011,0.512,0.021,0.8,0.032c0.288,0.011,0.592,0.016,0.912,0.016c0.32,0,0.651,0,0.992,0
					c0.576,0,1.026-0.024,1.352-0.072c0.325-0.048,0.554-0.144,0.688-0.288c0.133-0.144,0.2-0.359,0.2-0.647
					c0-0.353-0.109-0.59-0.328-0.712c-0.219-0.123-0.515-0.227-0.888-0.312l-2.192-0.512c-0.448-0.106-0.803-0.253-1.064-0.44
					c-0.262-0.187-0.448-0.421-0.56-0.704c-0.112-0.282-0.168-0.637-0.168-1.063c0-0.598,0.106-1.054,0.32-1.368s0.546-0.528,1-0.64
					C43.757,289.758,44.352,289.707,45.088,289.718z"/>
			</g>
		</g>
		<g>
			<g>
				<g class="st25">
					<g class="st24">
						<path class="st2" d="M152.271,524.838H65.427c-1.051,0-1.903-0.852-1.903-1.903v-0.116c0-1.051,0.852-1.903,1.903-1.903
							h86.845c1.051,0,1.903,0.852,1.903,1.903v0.116C154.174,523.986,153.322,524.838,152.271,524.838z"/>
						<g>
							<g>
								<path class="st2" d="M40.066,518.612v-0.911c0-2.804-2.103-5.187-4.767-5.398c-1.472-0.14-2.944,0.385-4.031,1.367
									c-1.087,0.981-1.717,2.383-1.717,3.82v1.122c-2.033,0.386-3.575,2.173-3.575,4.346v6.344c0,2.313,1.893,4.171,4.171,4.171
									H39.4c2.313,0,4.206-1.893,4.206-4.206v-6.379C43.641,520.785,42.099,519.033,40.066,518.612z M32.32,514.827
									c0.771-0.701,1.787-1.051,2.839-0.946c1.858,0.175,3.33,1.858,3.33,3.82v0.806h-7.36v-1.051
									C31.129,516.474,31.549,515.528,32.32,514.827z M42.064,529.302c0,1.437-1.192,2.629-2.629,2.629h-9.253
									c-1.437,0-2.594-1.157-2.594-2.594v-6.379c0-1.577,1.262-2.839,2.839-2.839h8.762c1.577,0,2.874,1.262,2.874,2.769V529.302z
									"/>
								<path class="st2" d="M34.809,523.764c-0.421,0-0.806,0.351-0.806,0.806v3.68c0,0.421,0.35,0.806,0.806,0.806
									c0.421,0,0.806-0.351,0.806-0.806v-3.715C35.615,524.115,35.23,523.764,34.809,523.764z"/>
							</g>
						</g>
					</g>
				</g>
				<g class="st25">
					<path class="st2" d="M107.025,567.099H65.021c-0.827,0-1.497-0.67-1.497-1.497v-0.928c0-0.827,0.67-1.497,1.497-1.497h42.004
						c0.827,0,1.497,0.67,1.497,1.497v0.928C108.522,566.429,107.852,567.099,107.025,567.099z"/>
					<g>
						<g>
							<path class="st2" d="M42.46,556.432l-7.206-1.988c-0.284-0.071-0.603-0.071-0.887,0l-7.242,1.988
								c-0.745,0.213-1.278,0.887-1.278,1.668v5.254c0,5.502,3.266,10.366,8.307,12.389c0.213,0.071,0.426,0.142,0.639,0.142
								c0.213,0,0.426-0.035,0.639-0.142c5.041-2.023,8.307-6.922,8.307-12.425V558.1C43.738,557.319,43.205,556.645,42.46,556.432z
								 M42.14,563.319c0,4.757-2.946,9.159-7.277,10.934c-0.035,0-0.071,0-0.106,0c-4.437-1.775-7.313-6.07-7.313-10.898V558.1
								c0-0.036,0.035-0.107,0.071-0.107l7.242-1.988h0.035c0,0,0,0,0.035,0l7.242,1.988c0.035,0,0.071,0.071,0.071,0.107V563.319z"
								/>
							<path class="st2" d="M38.803,561.792l-4.899,4.118l-2.201-1.846c-0.355-0.284-0.852-0.248-1.136,0.107
								c-0.284,0.355-0.248,0.852,0.106,1.136l2.698,2.272c0.142,0.142,0.319,0.177,0.497,0.177c0.177,0,0.355-0.071,0.497-0.177
								l5.467-4.579c0.355-0.284,0.39-0.781,0.106-1.136C39.655,561.544,39.123,561.508,38.803,561.792z"/>
						</g>
					</g>
				</g>
				<g class="st25">
					<path class="st2" d="M118.952,608.282H65.247c-0.939,0-1.701-0.761-1.701-1.701v-0.52c0-0.939,0.761-1.701,1.701-1.701h53.704
						c0.939,0,1.701,0.761,1.701,1.701v0.52C120.652,607.521,119.891,608.282,118.952,608.282z"/>
					<g>
						<g>
							<path class="st2" d="M41.199,594.079H28.422c-1.308,0-2.348,1.039-2.348,2.347v18.588c0,1.308,1.039,2.348,2.348,2.348H41.16
								c1.308,0,2.348-1.039,2.348-2.348v-18.588C43.546,595.118,42.469,594.079,41.199,594.079z M41.814,614.975
								c0,0.346-0.269,0.616-0.616,0.616H28.422c-0.346,0-0.616-0.269-0.616-0.616v-18.549c0-0.346,0.269-0.616,0.616-0.616H41.16
								c0.346,0,0.616,0.269,0.616,0.616v18.549H41.814z"/>
							<path class="st2" d="M35.195,597.273h-2.963c-0.462,0-0.885,0.385-0.885,0.885c0,0.5,0.385,0.885,0.885,0.885h2.963
								c0.462,0,0.885-0.385,0.885-0.885C36.08,597.658,35.657,597.273,35.195,597.273z"/>
							<path class="st2" d="M37.658,597.273h-0.5c-0.462,0-0.885,0.385-0.885,0.885c0,0.5,0.385,0.885,0.885,0.885h0.5
								c0.462,0,0.885-0.385,0.885-0.885C38.543,597.658,38.159,597.273,37.658,597.273z"/>
							<path class="st2" d="M34.81,612.166c-0.462,0-0.885,0.385-0.885,0.885c0,0.462,0.385,0.885,0.885,0.885
								c0.5,0,0.885-0.385,0.885-0.885S35.272,612.166,34.81,612.166z"/>
						</g>
					</g>
				</g>
			</g>
			<g class="st28">
				<path class="st2" d="M24.416,470.473c0.416,0,0.629,0.219,0.64,0.656l0.448,10.383h-1.568l-0.4-9.744h-0.32l-2.336,7.92
					c-0.085,0.354-0.31,0.529-0.672,0.529h-1.312c-0.374,0-0.608-0.176-0.704-0.529l-2.336-7.92h-0.32l-0.368,9.744H13.6
					l0.432-10.383c0.021-0.438,0.235-0.656,0.64-0.656H16.4c0.341,0,0.565,0.176,0.672,0.527l1.936,6.527
					c0.085,0.246,0.155,0.492,0.208,0.736c0.053,0.246,0.117,0.502,0.192,0.768h0.272c0.074-0.266,0.141-0.521,0.2-0.768
					c0.059-0.244,0.125-0.5,0.2-0.768L22.016,471c0.085-0.352,0.309-0.527,0.672-0.527H24.416z"/>
				<path class="st2" d="M31.2,473.512c0.917,0,1.65,0.135,2.2,0.4c0.549,0.268,0.944,0.701,1.184,1.305
					c0.24,0.602,0.36,1.398,0.36,2.391c0,1.004-0.12,1.807-0.36,2.408c-0.24,0.604-0.635,1.037-1.184,1.305
					c-0.549,0.266-1.283,0.4-2.2,0.4c-0.907,0-1.635-0.135-2.184-0.4c-0.55-0.268-0.947-0.701-1.192-1.305
					c-0.246-0.602-0.368-1.404-0.368-2.408c0-0.992,0.123-1.789,0.368-2.391c0.245-0.604,0.642-1.037,1.192-1.305
					C29.565,473.647,30.293,473.512,31.2,473.512z M31.2,474.76c-0.534,0-0.955,0.086-1.264,0.256
					c-0.31,0.172-0.528,0.463-0.656,0.873c-0.128,0.41-0.192,0.984-0.192,1.719c0,0.736,0.064,1.312,0.192,1.729
					c0.128,0.416,0.347,0.707,0.656,0.873c0.309,0.164,0.73,0.248,1.264,0.248c0.533,0,0.957-0.084,1.272-0.248
					c0.314-0.166,0.536-0.457,0.664-0.873c0.128-0.416,0.192-0.992,0.192-1.729c0-0.734-0.064-1.309-0.192-1.719
					c-0.128-0.41-0.35-0.701-0.664-0.873C32.157,474.846,31.733,474.76,31.2,474.76z"/>
				<path class="st2" d="M38.176,473.705l0.192,1.504l0.144,0.223v6.08h-1.536v-7.807H38.176z M42,473.512l-0.16,1.441h-0.496
					c-0.438,0-0.883,0.084-1.336,0.256c-0.454,0.17-1.005,0.416-1.656,0.734L38.24,475c0.565-0.469,1.139-0.834,1.72-1.096
					c0.581-0.262,1.144-0.393,1.688-0.393H42z"/>
				<path class="st2" d="M46.576,473.512c1.205,0,2.077,0.217,2.616,0.648S50,475.231,50,476.072
					c0.011,0.703-0.142,1.248-0.456,1.633c-0.314,0.383-0.824,0.574-1.528,0.574h-4.512v-1.104h4.112
					c0.352,0,0.581-0.111,0.688-0.336c0.106-0.225,0.16-0.48,0.16-0.768c-0.011-0.48-0.152-0.818-0.424-1.016
					s-0.739-0.297-1.4-0.297c-0.544-0.01-0.971,0.064-1.28,0.225c-0.309,0.16-0.525,0.438-0.648,0.832s-0.184,0.949-0.184,1.664
					c0,0.799,0.077,1.41,0.232,1.832c0.154,0.422,0.405,0.711,0.752,0.871c0.346,0.16,0.808,0.24,1.384,0.24
					c0.405,0,0.861-0.018,1.368-0.055c0.506-0.039,0.968-0.084,1.384-0.137l0.16,1.008c-0.256,0.107-0.565,0.195-0.928,0.264
					c-0.363,0.07-0.736,0.121-1.12,0.152c-0.384,0.031-0.736,0.049-1.056,0.049c-0.917,0-1.653-0.139-2.208-0.416
					s-0.96-0.719-1.216-1.32c-0.256-0.604-0.384-1.395-0.384-2.377c0-1.023,0.128-1.834,0.384-2.432
					c0.256-0.598,0.656-1.021,1.2-1.271S45.722,473.512,46.576,473.512z"/>
			</g>
		</g>
		<path class="st29" d="M48.788,698.543H20.864c-1.15,0-2.082-0.932-2.082-2.082v-27.923c0-1.15,0.932-2.082,2.082-2.082h27.923
			c1.15,0,2.082,0.932,2.082,2.082v27.923C50.87,697.611,49.938,698.543,48.788,698.543z"/>
		<g>
			<g>
				<path class="st30" d="M33.606,692.3c-0.239,0-0.443-0.034-0.682-0.136c-0.648-0.307-0.989-0.989-0.852-1.705l1.023-5.422h-6.24
					c-0.58,0-1.125-0.341-1.398-0.852c-0.273-0.511-0.205-1.159,0.136-1.637l7.672-10.263c0.409-0.546,1.091-0.75,1.739-0.546
					s1.057,0.784,1.057,1.466v4.808h6.751c0.614,0,1.159,0.341,1.398,0.887c0.273,0.546,0.17,1.193-0.205,1.637l-9.206,11.184
					C34.492,692.095,34.049,692.3,33.606,692.3z M34.492,673.205l-7.672,10.263l7.195,0.034c0.239,0,0.443,0.102,0.58,0.273
					s0.205,0.409,0.17,0.648l-1.193,6.342l0.034,0.034l9.24-11.218l-7.536-0.034c-0.409,0-0.784-0.341-0.784-0.784L34.492,673.205
					L34.492,673.205z"/>
			</g>
		</g>
		<path class="st31" d="M118.571,673.63H65.628c-1.149,0-2.081-0.932-2.081-2.081v-3.012c0-1.149,0.932-2.081,2.081-2.081h52.944
			c1.149,0,2.081,0.932,2.081,2.081v3.012C120.652,672.699,119.721,673.63,118.571,673.63z"/>
		<path class="st29" d="M105.074,689.614H64.81c-0.697,0-1.263-0.565-1.263-1.263v-0.392c0-0.697,0.565-1.263,1.263-1.263h40.264
			c0.697,0,1.263,0.565,1.263,1.263v0.392C106.337,689.049,105.772,689.614,105.074,689.614z"/>
		<line class="st32" x1="232.435" y1="80.217" x2="1180.957" y2="80.217"/>
		<g>
			
				<image style="overflow:visible;" width="128" height="128" xlink:href="../icons/user-male-circle.png"  transform="matrix(0.2385 0 0 0.2385 1118.1086 21.1304)">
			</image>
		</g>
		<path class="st31" d="M1100.85,29.826h-48.352c-0.803,0-1.454-0.651-1.454-1.454v-0.287c0-0.803,0.651-1.454,1.454-1.454h48.352
			c0.803,0,1.454,0.651,1.454,1.454v0.287C1102.304,29.175,1101.653,29.826,1100.85,29.826z"/>
		<path class="st31" d="M1101.178,42.152h-31.204c-0.622,0-1.126-0.504-1.126-1.126v-0.683c0-0.622,0.504-1.126,1.126-1.126h31.204
			c0.622,0,1.126,0.504,1.126,1.126v0.683C1102.304,41.648,1101.8,42.152,1101.178,42.152z"/>
		<path class="st23" d="M794.294,58.548H619.772c-8.861,0-16.043-7.183-16.043-16.043v0c0-8.861,7.183-16.043,16.043-16.043h174.522
			c8.861,0,16.043,7.183,16.043,16.043v0C810.337,51.365,803.154,58.548,794.294,58.548z"/>
		<g class="st24">
			<path class="st2" d="M633.372,50.915l-5.549-4.506c2.287-3.127,2.051-7.6-0.807-10.425c-1.513-1.513-3.531-2.354-5.683-2.354
				s-4.17,0.841-5.683,2.354c-3.127,3.127-3.127,8.239,0,11.366c1.513,1.513,3.531,2.354,5.683,2.354
				c2.051,0,3.968-0.773,5.481-2.152l5.616,4.54c0.135,0.101,0.303,0.168,0.471,0.168c0.235,0,0.437-0.101,0.572-0.269
				C633.742,51.655,633.708,51.184,633.372,50.915z M621.333,48.191c-1.749,0-3.363-0.673-4.607-1.917
				c-2.556-2.556-2.556-6.692,0-9.214c1.244-1.244,2.858-1.917,4.607-1.917s3.363,0.673,4.607,1.917
				c2.556,2.556,2.556,6.692,0,9.214C624.729,47.519,623.082,48.191,621.333,48.191z"/>
		</g>
		<path class="st33" d="M525.935,246.697H272.848c-4.094,0-7.413-3.319-7.413-7.413V125.696c0-4.094,3.319-7.413,7.413-7.413
			h253.087c4.094,0,7.413,3.319,7.413,7.413v113.588C533.348,243.378,530.029,246.697,525.935,246.697z"/>
		<path class="st33" d="M829.653,680.237H276.771c-6.261,0-11.336-5.076-11.336-11.336V291.098c0-6.261,5.076-11.336,11.336-11.336
			h552.881c6.261,0,11.336,5.076,11.336,11.336v377.803C840.989,675.162,835.914,680.237,829.653,680.237z"/>
		<path class="st33" d="M833.576,245.601H580.489c-4.094,0-7.413-3.319-7.413-7.413V124.6c0-4.094,3.319-7.413,7.413-7.413h253.087
			c4.094,0,7.413,3.319,7.413,7.413v113.588C840.989,242.282,837.67,245.601,833.576,245.601z"/>
		<path class="st33" d="M1141.217,245.601H888.13c-4.094,0-7.413-3.319-7.413-7.413V124.6c0-4.094,3.319-7.413,7.413-7.413h253.087
			c4.094,0,7.413,3.319,7.413,7.413v113.588C1148.63,242.282,1145.312,245.601,1141.217,245.601z"/>
		<path class="st33" d="M1141.217,681.568H888.13c-4.094,0-7.413-3.319-7.413-7.413V560.567c0-4.094,3.319-7.413,7.413-7.413
			h253.087c4.094,0,7.413,3.319,7.413,7.413v113.588C1148.63,678.249,1145.312,681.568,1141.217,681.568z"/>
		<path class="st33" d="M1138.651,516.163H890.697c-5.512,0-9.98-4.468-9.98-9.98V293.409c0-5.512,4.468-9.98,9.98-9.98h247.953
			c5.512,0,9.98,4.468,9.98,9.98v212.773C1148.63,511.694,1144.162,516.163,1138.651,516.163z"/>
		<g>
			<circle class="st34" cx="325.16" cy="181.84" r="31.334"/>
			
				<image style="overflow:visible;" width="128" height="128" xlink:href="../icons/star.png"  transform="matrix(0.3299 0 0 0.3299 304.0435 158.973)">
			</image>
		</g>
		<path class="st31" d="M479.543,167.217h-90.196c-1.549,0-2.804-1.256-2.804-2.804l0,0c0-1.549,1.256-2.804,2.804-2.804h90.196
			c1.549,0,2.804,1.256,2.804,2.804l0,0C482.348,165.962,481.092,167.217,479.543,167.217z"/>
		<path class="st31" d="M424.63,182.894h-35.283c-1.549,0-2.804-1.256-2.804-2.804l0,0c0-1.549,1.256-2.804,2.804-2.804h35.283
			c1.549,0,2.804,1.256,2.804,2.804l0,0C427.435,181.638,426.179,182.894,424.63,182.894z"/>
		<path class="st31" d="M1103.5,326.244h-90.196c-1.549,0-2.804-1.256-2.804-2.804v0c0-1.549,1.256-2.804,2.804-2.804h90.196
			c1.549,0,2.804,1.256,2.804,2.804v0C1106.304,324.988,1105.049,326.244,1103.5,326.244z"/>
	</g>
</g>
</svg>
