<svg xmlns="http://www.w3.org/2000/svg" viewBox="0 0 50 50">
  <path d="M25 12C18.507813 12 12.621094 13.359375 8.273438 15.628906C3.925781 17.898438 1 21.167969 1 25C1 28.832031 3.925781 32.101563 8.273438 34.371094C12.621094 36.640625 18.507813 38 25 38C31.492188 38 37.378906 36.640625 41.726563 34.371094C46.074219 32.101563 49 28.832031 49 25C49 21.167969 46.074219 17.898438 41.726563 15.628906C37.378906 13.359375 31.492188 12 25 12 Z M 25 14C31.210938 14 36.824219 15.324219 40.800781 17.402344C44.777344 19.476563 47 22.203125 47 25C47 27.796875 44.777344 30.523438 40.800781 32.597656C36.824219 34.675781 31.210938 36 25 36C18.789063 36 13.175781 34.675781 9.199219 32.597656C5.222656 30.523438 3 27.796875 3 25C3 22.203125 5.222656 19.476563 9.199219 17.402344C13.175781 15.324219 18.789063 14 25 14 Z M 22.507813 16L20 28L22.625 28L23.890625 22L25.988281 22C26.65625 22 27.101563 22.109375 27.308594 22.332031C27.511719 22.554688 27.554688 22.976563 27.4375 23.582031L26.480469 28L29.144531 28L30.183594 23.222656C30.40625 22.078125 30.238281 21.238281 29.683594 20.726563C29.117188 20.207031 28.121094 20 26.636719 20L24.296875 20L25.128906 16 Z M 11 20L8.972656 31L11.617188 31L12.144531 28L13.792969 28C17.238281 28 19.113281 27.203125 19.8125 24.246094C20.414063 21.703125 18.875 20 16.332031 20 Z M 32 20L29.972656 31L32.617188 31L33.144531 28L34.792969 28C38.238281 28 40.113281 27.203125 40.8125 24.246094C41.414063 21.703125 39.875 20 37.332031 20 Z M 13.273438 22L15.332031 22C17.042969 22 17.402344 22.769531 17.3125 23.625C17.082031 25.832031 15.707031 26 14.230469 26L12.515625 26 Z M 34.273438 22L36.332031 22C38.042969 22 38.402344 22.769531 38.3125 23.625C38.082031 25.832031 36.707031 26 35.230469 26L33.515625 26Z" fill="#FFFFFF" />
</svg>